<svg width="173" height="58" viewBox="0 0 173 58" fill="none" xmlns="http://www.w3.org/2000/svg">
<g clip-path="url(#clip0_7_9)">
<path fill-rule="evenodd" clip-rule="evenodd" d="M20.3422 40.6669L20.6325 41.179C12.967 44.6988 4.07155 44.366 4.21131 34.7509C4.25217 31.2462 5.0929 28.3638 5.97664 26.2009C2.5707 32.8797 2.04605 38.9902 5.18966 42.1491C8.29242 45.2671 14.2636 44.7809 20.7981 41.4836L21.1421 42.134L22.8515 39.848L20.3422 40.6647V40.6669Z" fill="white"/>
<path fill-rule="evenodd" clip-rule="evenodd" d="M21.1292 8.49378C29.5408 2.56479 37.9933 0.775715 41.9088 4.69741C43.5215 6.33307 44.1709 8.7293 43.9494 11.5836C41.3992 0.693608 31.4566 2.63177 23.1288 7.37237C22.6881 7.62085 21.5441 8.21721 21.1292 8.49378Z" fill="white"/>
<path d="M142.896 15.2827H121.538V33.7114H142.896V27.4475L146.867 28.1541L150.824 28.8606V32.3113C150.824 33.6272 150.686 34.7507 150.383 35.6647C150.093 36.5657 149.652 37.2572 149.073 37.7433C148.48 38.2273 147.639 38.5882 146.523 38.8237C145.407 39.0722 144.027 39.1845 142.386 39.1845H122.062C120.407 39.1845 119.016 39.0743 117.897 38.8237C116.781 38.5882 115.939 38.2273 115.347 37.7433C114.782 37.2593 114.341 36.5657 114.051 35.6647C113.76 34.7507 113.61 33.6423 113.61 32.3113V16.9594C113.61 15.6284 113.763 14.52 114.051 13.6211C114.341 12.7201 114.782 12.0136 115.347 11.5296C115.941 11.0456 116.781 10.6847 117.897 10.4341C119.013 10.1986 120.407 10.0732 122.062 10.0732H142.386C144.027 10.0732 145.405 10.1986 146.523 10.4341C147.639 10.6826 148.482 11.0434 149.073 11.5296C149.652 12.0136 150.095 12.7201 150.383 13.6211C150.686 14.5221 150.824 15.6436 150.824 16.9594V19.7165L146.867 20.2567L142.896 20.7839V15.2827Z" fill="white"/>
<path fill-rule="evenodd" clip-rule="evenodd" d="M19.8606 10.8771L19.8196 10.9183L19.8606 10.9053V10.8771Z" fill="white"/>
<path fill-rule="evenodd" clip-rule="evenodd" d="M18.8827 8.49368C24.8947 1.60749 47.1344 -7.17797 47.0656 9.85061L48.5557 9.79443L46.8054 12.8713L44.7649 9.9608L46.0206 9.91975C45.0423 -5.59849 25.3506 3.28204 18.8849 8.49368H18.8827ZM25.8881 40.6256C16.5261 47.0689 7.20492 48.953 2.86148 44.5884C-1.31639 40.3772 0.242521 31.5787 6.061 22.5426C5.70192 23.193 4.75152 25.2997 4.37953 26.0754C1.0424 33.128 0.752121 39.6533 4.25482 43.1731C8.18542 47.1078 15.823 46.2759 23.7659 41.7449C24.2755 41.4532 25.3785 40.913 25.8903 40.6235L25.8881 40.6256Z" fill="white"/>
<path d="M16.1363 33.6294H26.3821C31.8415 33.6294 35.6904 32.9099 37.9782 31.4687C40.2532 30.0145 41.3971 27.6161 41.3971 24.2778C41.3971 21.2982 40.4467 19.0403 38.5566 17.5169C36.6666 15.9785 33.8692 15.218 30.1729 15.218H16.1363V33.6315V33.6294ZM8.2085 39.1154V10.0042H30.1192C36.3656 10.0042 41.1777 11.2509 44.5428 13.7443C47.8929 16.2378 49.5765 19.7857 49.5765 24.3707C49.5765 27.0997 48.9142 29.5392 47.6047 31.715C46.2953 33.8908 44.4482 35.6086 42.0615 36.8553C40.5864 37.6461 38.7394 38.2274 36.5462 38.5731C34.3401 38.9339 31.5125 39.1133 28.0937 39.1133H8.2085V39.1154ZM92.9528 15.2417H70.6572V21.4905H91.8777C95.2148 21.4905 97.4618 21.9745 98.6336 22.9447C99.8055 23.9278 100.399 25.7298 100.399 28.3767V32.3805C100.399 35.0122 99.8055 36.8272 98.6336 37.7974C97.4747 38.7676 95.2148 39.2516 91.8777 39.2516H70.8507C67.5286 39.2516 65.2666 38.7676 64.1076 37.7974C62.9207 36.8272 62.3423 35.0122 62.3423 32.3805V31.5767L69.3327 30.3429V33.7785H93.3936V27.1408H72.1731C68.8639 27.1408 66.6298 26.6568 65.4709 25.6866C64.3119 24.7035 63.7335 22.9014 63.7335 20.2416V17.0265C63.7335 14.3796 64.3119 12.5797 65.4709 11.5944C66.6298 10.6243 68.8639 10.1403 72.1731 10.1403H91.4906C94.6901 10.1403 96.9092 10.6113 98.109 11.5404C99.3368 12.4825 99.9431 14.1462 99.9431 16.5295V17.1388L92.9528 18.5519V15.2396V15.2417ZM164.57 39.1716V10.0452H172.498V39.1694H164.57V39.1716Z" fill="white"/>
<path d="M9.68354 55.8394V57.9029H8.38696V52.3045C9.25565 52.2764 9.76525 52.2634 9.90286 52.2634C11.0747 52.2634 11.9155 52.3887 12.453 52.6653C12.9906 52.9419 13.2658 53.3589 13.2658 53.9401C13.2658 55.215 12.2595 55.8653 10.2727 55.8653C10.1351 55.8653 9.92867 55.8524 9.67924 55.8372L9.68354 55.8394ZM9.68354 53.1644V54.9514C9.90501 54.9643 10.0835 54.9794 10.2082 54.9794C10.8017 54.9794 11.2424 54.8973 11.5177 54.7569C11.7929 54.6035 11.9305 54.355 11.9305 54.0093C11.9305 53.4281 11.3091 53.1493 10.0835 53.1493C9.94587 53.1493 9.80825 53.1493 9.68354 53.1623V53.1644Z" fill="white"/>
<path d="M19.3359 57.905L17.3771 55.5909C17.1706 55.5909 16.8954 55.5779 16.5492 55.5628V57.905H15.1838V52.2936C15.2655 52.2936 15.5429 52.2806 16.0396 52.2655C16.5363 52.2526 16.9212 52.2374 17.2244 52.2374C19.0994 52.2374 20.024 52.7927 20.024 53.8861C20.024 54.2188 19.8993 54.5235 19.6369 54.8C19.3897 55.0766 19.0585 55.2711 18.6715 55.3813L20.8368 57.9028H19.3338L19.3359 57.905ZM16.5514 53.1665V54.7179C16.7857 54.7309 16.9642 54.746 17.104 54.746C17.6415 54.746 18.0415 54.6898 18.3038 54.5667C18.5511 54.4565 18.6758 54.221 18.6758 53.8882C18.6758 53.6116 18.5382 53.4172 18.2758 53.307C18.0006 53.1968 17.5727 53.1406 16.9943 53.1406C16.8567 53.1406 16.704 53.1536 16.5535 53.1687L16.5514 53.1665Z" fill="white"/>
<path d="M21.8882 55.0507C21.8882 54.2599 22.1785 53.5814 22.7569 53.0283C23.3224 52.473 24.0943 52.1964 25.0598 52.1964C26.1069 52.1964 26.9218 52.4449 27.4873 52.944C28.0399 53.4431 28.3152 54.1497 28.3152 55.0507C28.3152 55.9517 28.0249 56.6712 27.4465 57.1985C26.8681 57.7386 26.0273 58.0022 24.9501 58.0022C23.9717 58.0022 23.2127 57.7386 22.6881 57.2114C22.1634 56.6842 21.8882 55.9647 21.8882 55.0507ZM23.2536 55.0507C23.2536 55.7011 23.3912 56.2153 23.6944 56.574C23.9846 56.9348 24.3975 57.1142 24.9501 57.1142C25.6124 57.1142 26.1091 56.9349 26.4531 56.587C26.7971 56.2261 26.9627 55.727 26.9627 55.0486C26.9627 53.7327 26.3284 53.0801 25.0598 53.0801C24.4813 53.0801 24.0255 53.2595 23.7223 53.6074C23.4062 53.9682 23.2536 54.4522 23.2536 55.0486V55.0507Z" fill="white"/>
<path d="M37.0967 57.905H35.8409L35.069 54.8844L33.594 57.9871H33.1381L31.6631 54.8844L30.8782 57.905H29.6096L31.0847 52.2915H31.7727L33.3596 56.0749L34.9163 52.2915H35.6066L37.0967 57.905Z" fill="white"/>
<path d="M38.3374 55.0507C38.3374 54.2599 38.6126 53.5814 39.1932 53.0283C39.7716 52.473 40.5306 52.1964 41.4961 52.1964C42.5583 52.1964 43.3582 52.4449 43.9237 52.944C44.4763 53.4431 44.7515 54.1497 44.7515 55.0507C44.7515 55.9517 44.4612 56.6712 43.8828 57.1985C43.3044 57.7386 42.4637 58.0022 41.4015 58.0022C40.4081 58.0022 39.6512 57.7386 39.1265 57.2114C38.6019 56.6842 38.3396 55.9647 38.3396 55.0507H38.3374ZM39.6877 55.0507C39.6877 55.7011 39.8404 56.2153 40.1285 56.574C40.4188 56.9348 40.8317 57.1142 41.3972 57.1142C42.0444 57.1142 42.5411 56.9349 42.8873 56.587C43.2313 56.2261 43.3969 55.727 43.3969 55.0486C43.3969 53.7327 42.7625 53.0801 41.4939 53.0801C40.9155 53.0801 40.4597 53.2595 40.1565 53.6074C39.8404 53.9682 39.6877 54.4522 39.6877 55.0486V55.0507Z" fill="white"/>
<path d="M49.6713 53.1796V57.905H48.3747V53.1796H46.031V52.2915H52.1247V53.1796H49.6713Z" fill="white"/>
<path d="M53.7803 57.905V52.2915H55.0769V57.905H53.7803Z" fill="white"/>
<path d="M62.2047 57.9871L58.6332 54.4263V57.905H57.3796V52.2915H58.014L61.4887 55.6881V52.2915H62.7423V57.9871H62.2047Z" fill="white"/>
<path d="M70.4507 52.7495L69.8981 53.5533C69.7454 53.4561 69.511 53.3459 69.1821 53.2487C68.866 53.1385 68.5886 53.0952 68.3542 53.0952C67.6382 53.0952 67.0727 53.2746 66.6577 53.6484C66.2298 54.0222 66.0234 54.5213 66.0234 55.1458C66.0234 55.7702 66.2298 56.2261 66.6448 56.574C67.0447 56.9348 67.6102 57.1142 68.3134 57.1142C68.7821 57.1142 69.1541 57.0169 69.4573 56.8225V55.714H68.4359V54.8692H70.7668V57.3778C70.4507 57.5722 70.0507 57.7235 69.5669 57.8358C69.0702 57.946 68.5886 58.0022 68.1048 58.0022C67.0426 58.0022 66.2148 57.7386 65.5955 57.2114C64.9741 56.6842 64.6709 55.9928 64.6709 55.1198C64.6709 54.2469 65.002 53.5533 65.6772 53.0131C66.3524 52.473 67.249 52.2094 68.3929 52.2094C69.1928 52.2094 69.883 52.3887 70.4464 52.7495H70.4507Z" fill="white"/>
<path d="M77.4285 57.905H75.7878V52.3066C76.835 52.2785 77.4844 52.2655 77.7596 52.2655C78.8218 52.2655 79.6754 52.501 80.2968 52.9721C80.9311 53.4561 81.2343 54.0935 81.2343 54.8843C81.2343 56.8937 79.9657 57.905 77.4285 57.905ZM77.0973 53.1795V56.9888C77.3037 57.0169 77.5381 57.0169 77.7725 57.0169C78.4348 57.0169 78.9573 56.8376 79.3314 56.4767C79.6905 56.1029 79.884 55.6038 79.884 54.9383C79.884 53.7478 79.1529 53.1514 77.6908 53.1514C77.5532 53.1514 77.3596 53.1514 77.0973 53.1795Z" fill="white"/>
<path d="M87.4783 57.905L86.9407 56.7685H84.4035L83.8939 57.905H82.4468L85.384 52.2245H85.9624L88.9125 57.905H87.4783ZM85.6721 53.9423L84.7755 56.0057H86.5537L85.6721 53.9423Z" fill="white"/>
<path d="M92.4711 53.1796V57.905H91.1746V53.1796H88.8308V52.2915H94.9245V53.1796H92.4711Z" fill="white"/>
<path d="M99.8745 57.905L99.3369 56.7685H96.8126L96.2879 57.905H94.8408L97.778 52.2245H98.3564L101.322 57.905H99.8745ZM98.0683 53.9423L97.1867 56.0057H98.9649L98.0683 53.9423Z" fill="white"/>
<path d="M106.701 55.8394V57.9029H105.392V52.3045C106.261 52.2764 106.77 52.2634 106.923 52.2634C108.082 52.2634 108.935 52.3887 109.46 52.6653C109.998 52.9419 110.273 53.3589 110.273 53.9401C110.273 55.215 109.279 55.8653 107.295 55.8653C107.142 55.8653 106.951 55.8524 106.701 55.8372V55.8394ZM106.701 53.1644V54.9514C106.923 54.9643 107.088 54.9794 107.211 54.9794C107.817 54.9794 108.245 54.8973 108.52 54.7569C108.796 54.6035 108.933 54.355 108.933 54.0093C108.933 53.4281 108.312 53.1493 107.086 53.1493C106.949 53.1493 106.824 53.1493 106.699 53.1623L106.701 53.1644Z" fill="white"/>
<path d="M116.352 57.905L114.38 55.5909C114.186 55.5909 113.911 55.5779 113.552 55.5628V57.905H112.202V52.2936C112.27 52.2936 112.546 52.2806 113.042 52.2655C113.539 52.2526 113.939 52.2374 114.227 52.2374C116.102 52.2374 117.04 52.7927 117.04 53.8861C117.04 54.2188 116.902 54.5235 116.653 54.8C116.39 55.0766 116.059 55.2711 115.674 55.3813L117.852 57.9028H116.349L116.352 57.905ZM113.552 53.1665V54.7179C113.786 54.7309 113.98 54.746 114.105 54.746C114.657 54.746 115.042 54.6898 115.304 54.5667C115.552 54.4565 115.676 54.221 115.676 53.8882C115.676 53.6116 115.539 53.4172 115.276 53.307C115.001 53.1968 114.573 53.1406 113.995 53.1406C113.857 53.1406 113.705 53.1536 113.554 53.1687L113.552 53.1665Z" fill="white"/>
<path d="M118.904 55.0507C118.904 54.2599 119.194 53.5814 119.76 53.0283C120.338 52.473 121.097 52.1964 122.062 52.1964C123.125 52.1964 123.925 52.4449 124.49 52.944C125.043 53.4431 125.331 54.1497 125.331 55.0507C125.331 55.9517 125.041 56.6712 124.449 57.1985C123.871 57.7386 123.043 58.0022 121.968 58.0022C120.974 58.0022 120.218 57.7386 119.693 57.2114C119.168 56.6842 118.906 55.9647 118.906 55.0507H118.904ZM120.254 55.0507C120.254 55.7011 120.407 56.2153 120.695 56.574C120.985 56.9348 121.411 57.1142 121.964 57.1142C122.611 57.1142 123.107 56.9349 123.454 56.587C123.798 56.2261 123.963 55.727 123.963 55.0486C123.963 53.7327 123.329 53.0801 122.06 53.0801C121.482 53.0801 121.039 53.2595 120.723 53.6074C120.407 53.9682 120.254 54.4522 120.254 55.0486V55.0507Z" fill="white"/>
<path d="M130.237 53.1796V57.905H128.941V53.1796H126.597V52.2915H132.691V53.1796H130.237Z" fill="white"/>
<path d="M135.615 53.1796V54.4954H138V55.3403H135.615V57.017H138.965V57.905H134.319V52.2915H138.965V53.1796H135.615Z" fill="white"/>
<path d="M145.984 52.5962L145.446 53.413C145.156 53.2055 144.687 53.0953 144.04 53.0953C143.433 53.0953 142.924 53.2898 142.537 53.6766C142.137 54.0655 141.943 54.5625 141.943 55.1588C141.943 55.7552 142.122 56.2262 142.496 56.587C142.855 56.9328 143.337 57.1143 143.943 57.1143C144.633 57.1143 145.184 56.9198 145.571 56.546L146.177 57.3498C145.652 57.7798 144.868 58.0001 143.833 58.0001C142.799 58.0001 142.014 57.7365 141.449 57.2244C140.87 56.7124 140.593 56.0058 140.593 55.1178C140.593 54.2859 140.909 53.5945 141.531 53.0392C142.165 52.4838 142.978 52.2073 143.958 52.2073C144.799 52.2073 145.474 52.3326 145.986 52.5962H145.984Z" fill="white"/>
<path d="M150.989 53.1796V57.905H149.693V53.1796H147.349V52.2915H153.443V53.1796H150.989Z" fill="white"/>
<path d="M155.098 57.905V52.2915H156.408V57.905H155.098Z" fill="white"/>
<path d="M158.352 55.0507C158.352 54.2599 158.642 53.5814 159.207 53.0283C159.786 52.473 160.558 52.1964 161.51 52.1964C162.572 52.1964 163.385 52.4449 163.938 52.944C164.503 53.4431 164.779 54.1497 164.779 55.0507C164.779 55.9517 164.488 56.6712 163.897 57.1985C163.319 57.7386 162.491 58.0022 161.416 58.0022C160.422 58.0022 159.678 57.7386 159.141 57.2114C158.616 56.6842 158.354 55.9647 158.354 55.0507H158.352ZM159.702 55.0507C159.702 55.7011 159.855 56.2153 160.143 56.574C160.433 56.9348 160.859 57.1142 161.411 57.1142C162.059 57.1142 162.555 56.9349 162.901 56.587C163.245 56.2261 163.426 55.727 163.426 55.0486C163.426 53.7327 162.779 53.0801 161.51 53.0801C160.932 53.0801 160.489 53.2595 160.173 53.6074C159.87 53.9682 159.704 54.4522 159.704 55.0486L159.702 55.0507Z" fill="white"/>
<path d="M171.519 57.9871L167.963 54.4263V57.905H166.707V52.2915H167.329L170.803 55.6881V52.2915H172.057V57.9871H171.519Z" fill="white"/>
<path fill-rule="evenodd" clip-rule="evenodd" d="M19.8606 10.8771L19.8196 10.9183L19.8606 10.9053V10.8771Z" fill="white"/>
</g>
<defs>
<clipPath id="clip0_7_9">
<rect width="172" height="58" fill="white" transform="translate(0.5)"/>
</clipPath>
</defs>
</svg>
