<svg xmlns="http://www.w3.org/2000/svg" xmlns:xlink="http://www.w3.org/1999/xlink" width="30.828" height="32.602" viewBox="0 0 30.828 32.602">
  <defs>
    <linearGradient id="linear-gradient" x1="0.5" x2="0.5" y2="1" gradientUnits="objectBoundingBox">
      <stop offset="0" stop-color="#00f7f9"/>
      <stop offset="1" stop-color="#0093da"/>
    </linearGradient>
    <clipPath id="clip-path">
      <rect id="Rectangle_301" data-name="Rectangle 301" width="23.189" height="23.189" fill="url(#linear-gradient)"/>
    </clipPath>
    <clipPath id="clip-path-2">
      <rect id="Rectangle_301-2" data-name="Rectangle 301" width="11.248" height="11.248" fill="url(#linear-gradient)"/>
    </clipPath>
  </defs>
  <g id="Group_720" data-name="Group 720" transform="translate(-850.172 -1099.099)">
    <g id="Group_716" data-name="Group 716" transform="matrix(0.966, 0.259, -0.259, 0.966, 856.174, 1103.3)">
      <g id="Group_715" data-name="Group 715" transform="translate(0)" clip-path="url(#clip-path)">
        <path id="Path_470" data-name="Path 470" d="M11.595,23.189h0A11.6,11.6,0,0,0,0,11.595,11.6,11.6,0,0,0,11.595,0,11.6,11.6,0,0,0,23.189,11.595,11.6,11.6,0,0,0,11.595,23.189" transform="translate(0)" fill="url(#linear-gradient)"/>
        <path id="Path_471" data-name="Path 471" d="M11.595,23.189h0A11.6,11.6,0,0,0,0,11.595,11.6,11.6,0,0,0,11.595,0,11.6,11.6,0,0,0,23.189,11.595,11.6,11.6,0,0,0,11.595,23.189Z" transform="translate(0)" fill="url(#linear-gradient)"/>
      </g>
    </g>
    <g id="Group_717" data-name="Group 717" transform="matrix(0.407, 0.914, -0.914, 0.407, 876.425, 1099.099)">
      <g id="Group_715-2" data-name="Group 715" transform="translate(0)" clip-path="url(#clip-path-2)">
        <path id="Path_470-2" data-name="Path 470" d="M5.624,11.248h0A5.624,5.624,0,0,0,0,5.624,5.624,5.624,0,0,0,5.624,0a5.624,5.624,0,0,0,5.624,5.624,5.624,5.624,0,0,0-5.624,5.624" transform="translate(0)" fill="url(#linear-gradient)"/>
        <path id="Path_471-2" data-name="Path 471" d="M5.624,11.248h0A5.624,5.624,0,0,0,0,5.624,5.624,5.624,0,0,0,5.624,0a5.624,5.624,0,0,0,5.624,5.624A5.624,5.624,0,0,0,5.624,11.248Z" transform="translate(0)" fill="url(#linear-gradient)"/>
      </g>
    </g>
  </g>
</svg>
