<svg xmlns="http://www.w3.org/2000/svg" xmlns:xlink="http://www.w3.org/1999/xlink" width="1920" height="1115" viewBox="0 0 1920 1115">
  <defs>
    <linearGradient id="linear-gradient" x1="-417.682" y1="-727.249" x2="-417.682" y2="205.888" gradientUnits="objectBoundingBox">
      <stop offset="0" stop-color="#000ca4"/>
      <stop offset="1" stop-color="#0093da"/>
    </linearGradient>
    <clipPath id="clip-path">
      <rect id="Rectangle_87" data-name="Rectangle 87" width="1920" height="1080" fill="url(#linear-gradient)"/>
    </clipPath>
    <linearGradient id="linear-gradient-318" x1="0.5" x2="0.5" y2="1" gradientUnits="objectBoundingBox">
      <stop offset="0" stop-color="#0093da" stop-opacity="0"/>
      <stop offset="0.485" stop-color="#0093da"/>
      <stop offset="1" stop-color="#0093da" stop-opacity="0"/>
    </linearGradient>
  </defs>
  <g id="Group_850" data-name="Group 850" transform="translate(0 -1870)">
    <g id="Group_86" data-name="Group 86" transform="translate(0 1905)" opacity="0.2">
      <g id="Group_85" data-name="Group 85" clip-path="url(#clip-path)">
        <path id="Path_134" data-name="Path 134" d="M1456.332,877.031h-.906a.132.132,0,0,1-.133-.133v-.906a.132.132,0,0,1,.133-.133h.906a.133.133,0,0,1,.133.133v.906a.133.133,0,0,1-.133.133" fill="url(#linear-gradient)"/>
        <path id="Path_135" data-name="Path 135" d="M962.789,188.841H961.2a.376.376,0,0,1-.376-.376v-1.593a.375.375,0,0,1,.376-.375h1.593a.375.375,0,0,1,.376.375v1.593a.376.376,0,0,1-.376.376" fill="url(#linear-gradient)"/>
        <path id="Path_136" data-name="Path 136" d="M235.767,971.572h-.557a.058.058,0,0,1-.058-.058v-.557a.057.057,0,0,1,.058-.057h.557a.057.057,0,0,1,.058.057v.557a.058.058,0,0,1-.058.058" fill="url(#linear-gradient)"/>
        <path id="Path_137" data-name="Path 137" d="M1716.1,21.987h-2.36a.866.866,0,0,1-.866-.867V18.761a.866.866,0,0,1,.866-.867h2.36a.867.867,0,0,1,.867.867V21.12a.867.867,0,0,1-.867.867" fill="url(#linear-gradient)"/>
        <path id="Path_138" data-name="Path 138" d="M1858.169,325.51h-.557a.058.058,0,0,1-.058-.058v-.557a.057.057,0,0,1,.058-.057h.557a.057.057,0,0,1,.058.057v.557a.058.058,0,0,1-.058.058" fill="url(#linear-gradient)"/>
        <path id="Path_139" data-name="Path 139" d="M887.505,682.225h-.557a.058.058,0,0,1-.058-.058v-.557a.057.057,0,0,1,.058-.057h.557a.057.057,0,0,1,.058.057v.557a.058.058,0,0,1-.058.058" fill="url(#linear-gradient)"/>
        <path id="Path_140" data-name="Path 140" d="M1846.45,842.6h-.557a.058.058,0,0,1-.058-.058v-.557a.058.058,0,0,1,.058-.057h.557a.058.058,0,0,1,.058.057v.557a.058.058,0,0,1-.058.058" fill="url(#linear-gradient)"/>
        <path id="Path_141" data-name="Path 141" d="M1243.638,639.015h-.557a.058.058,0,0,1-.058-.058V638.4a.057.057,0,0,1,.058-.057h.557a.057.057,0,0,1,.058.057v.557a.058.058,0,0,1-.058.058" fill="url(#linear-gradient)"/>
        <path id="Path_142" data-name="Path 142" d="M759.514,186.238h-4.38a2.444,2.444,0,0,1-2.444-2.445v-4.379a2.445,2.445,0,0,1,2.444-2.445h4.38a2.445,2.445,0,0,1,2.445,2.445v4.379a2.445,2.445,0,0,1-2.445,2.445" fill="url(#linear-gradient)"/>
        <path id="Path_143" data-name="Path 143" d="M1098.853,353.393h-.557a.058.058,0,0,1-.058-.058v-.557a.057.057,0,0,1,.058-.057h.557a.057.057,0,0,1,.058.057v.557a.058.058,0,0,1-.058.058" fill="url(#linear-gradient)"/>
        <path id="Path_144" data-name="Path 144" d="M506.646,238.135h-.557a.058.058,0,0,1-.058-.058v-.557a.057.057,0,0,1,.058-.057h.557a.057.057,0,0,1,.058.057v.557a.058.058,0,0,1-.058.058" fill="url(#linear-gradient)"/>
        <path id="Path_145" data-name="Path 145" d="M1770.161,416.872h-.557a.058.058,0,0,1-.058-.058v-.557a.057.057,0,0,1,.058-.057h.557a.057.057,0,0,1,.058.057v.557a.058.058,0,0,1-.058.058" fill="url(#linear-gradient)"/>
        <path id="Path_146" data-name="Path 146" d="M990.044,451.841h-.557a.058.058,0,0,1-.058-.058v-.557a.057.057,0,0,1,.058-.057h.557a.057.057,0,0,1,.058.057v.557a.058.058,0,0,1-.058.058" fill="url(#linear-gradient)"/>
        <path id="Path_147" data-name="Path 147" d="M329.4,619.668h-.557a.057.057,0,0,1-.058-.057v-.558a.058.058,0,0,1,.058-.057h.557a.058.058,0,0,1,.058.057v.558a.057.057,0,0,1-.058.057" fill="url(#linear-gradient)"/>
        <path id="Path_148" data-name="Path 148" d="M1748.262,955.923H1745.8a.958.958,0,0,1-.958-.959V952.5a.958.958,0,0,1,.958-.959h2.461a.959.959,0,0,1,.959.959v2.46a.959.959,0,0,1-.959.959" fill="url(#linear-gradient)"/>
        <path id="Path_149" data-name="Path 149" d="M132,765.248h-.557a.058.058,0,0,1-.058-.058v-.557a.057.057,0,0,1,.058-.057H132a.057.057,0,0,1,.058.057v.557a.058.058,0,0,1-.058.058" fill="url(#linear-gradient)"/>
        <path id="Path_150" data-name="Path 150" d="M1656.9,316.314h-.557a.058.058,0,0,1-.059-.058V315.7a.057.057,0,0,1,.059-.057h.557a.057.057,0,0,1,.058.057v.557a.058.058,0,0,1-.058.058" fill="url(#linear-gradient)"/>
        <path id="Path_151" data-name="Path 151" d="M1567.72,110.551h-.557a.058.058,0,0,1-.058-.058v-.557a.057.057,0,0,1,.058-.057h.557a.057.057,0,0,1,.058.057v.557a.058.058,0,0,1-.058.058" fill="url(#linear-gradient)"/>
        <path id="Path_152" data-name="Path 152" d="M914.165,584.6h-.557a.058.058,0,0,1-.058-.058v-.557a.057.057,0,0,1,.058-.057h.557a.057.057,0,0,1,.058.057v.557a.058.058,0,0,1-.058.058" fill="url(#linear-gradient)"/>
        <path id="Path_153" data-name="Path 153" d="M801.661,695.231h-1.6a.381.381,0,0,1-.38-.38v-1.6a.38.38,0,0,1,.38-.38h1.6a.38.38,0,0,1,.379.38v1.6a.38.38,0,0,1-.379.38" fill="url(#linear-gradient)"/>
        <path id="Path_154" data-name="Path 154" d="M709.966,768.643h-.557a.058.058,0,0,1-.058-.058v-.557a.057.057,0,0,1,.058-.057h.557a.057.057,0,0,1,.058.057v.557a.058.058,0,0,1-.058.058" fill="url(#linear-gradient)"/>
        <path id="Path_155" data-name="Path 155" d="M1699.594,555.5h-5.555a3.1,3.1,0,0,1-3.1-3.1v-5.555a3.1,3.1,0,0,1,3.1-3.1h5.555a3.1,3.1,0,0,1,3.1,3.1V552.4a3.1,3.1,0,0,1-3.1,3.1" fill="url(#linear-gradient)"/>
        <path id="Path_156" data-name="Path 156" d="M987.583,630.71h-.557a.058.058,0,0,1-.058-.058v-.557a.057.057,0,0,1,.058-.057h.557a.057.057,0,0,1,.058.057v.557a.058.058,0,0,1-.058.058" fill="url(#linear-gradient)"/>
        <path id="Path_157" data-name="Path 157" d="M1498.11,210.351h-.557a.058.058,0,0,1-.058-.058v-.557a.057.057,0,0,1,.058-.057h.557a.057.057,0,0,1,.058.057v.557a.058.058,0,0,1-.058.058" fill="url(#linear-gradient)"/>
        <path id="Path_158" data-name="Path 158" d="M35.9,481.768h-.557a.058.058,0,0,1-.058-.058v-.557a.057.057,0,0,1,.058-.057H35.9a.057.057,0,0,1,.058.057v.557a.058.058,0,0,1-.058.058" fill="url(#linear-gradient)"/>
        <path id="Path_159" data-name="Path 159" d="M590.5,339.542h-2.333a.844.844,0,0,1-.843-.843v-2.333a.844.844,0,0,1,.843-.843H590.5a.843.843,0,0,1,.843.843V338.7a.843.843,0,0,1-.843.843" fill="url(#linear-gradient)"/>
        <path id="Path_160" data-name="Path 160" d="M631.04,181.347h-.557a.058.058,0,0,1-.058-.058v-.557a.057.057,0,0,1,.058-.057h.557a.057.057,0,0,1,.058.057v.557a.058.058,0,0,1-.058.058" fill="url(#linear-gradient)"/>
        <path id="Path_161" data-name="Path 161" d="M818.988,339.164h-4.5a2.512,2.512,0,0,1-2.512-2.512v-4.5a2.512,2.512,0,0,1,2.512-2.512h4.5a2.512,2.512,0,0,1,2.512,2.512v4.5a2.512,2.512,0,0,1-2.512,2.512" fill="url(#linear-gradient)"/>
        <path id="Path_162" data-name="Path 162" d="M462.876,883.9h-.557a.058.058,0,0,1-.058-.058v-.557a.058.058,0,0,1,.058-.057h.557a.058.058,0,0,1,.058.057v.557a.058.058,0,0,1-.058.058" fill="url(#linear-gradient)"/>
        <path id="Path_163" data-name="Path 163" d="M1619.282,429.66h-.557a.058.058,0,0,1-.058-.058v-.557a.057.057,0,0,1,.058-.057h.557a.057.057,0,0,1,.058.057v.557a.058.058,0,0,1-.058.058" fill="url(#linear-gradient)"/>
        <path id="Path_164" data-name="Path 164" d="M454.865,258.687h-3.636a2.03,2.03,0,0,1-2.03-2.03v-3.636a2.029,2.029,0,0,1,2.03-2.029h3.636a2.029,2.029,0,0,1,2.03,2.029v3.636a2.03,2.03,0,0,1-2.03,2.03" fill="url(#linear-gradient)"/>
        <path id="Path_165" data-name="Path 165" d="M163.345,22.155h-.557a.058.058,0,0,1-.058-.058V21.54a.058.058,0,0,1,.058-.057h.557a.058.058,0,0,1,.058.057V22.1a.058.058,0,0,1-.058.058" fill="url(#linear-gradient)"/>
        <path id="Path_166" data-name="Path 166" d="M330.494,742.913H328.1a.9.9,0,0,1-.9-.9v-2.394a.9.9,0,0,1,.9-.9h2.394a.9.9,0,0,1,.9.9v2.394a.9.9,0,0,1-.9.9" fill="url(#linear-gradient)"/>
        <path id="Path_167" data-name="Path 167" d="M483.384,544.917h-.557a.057.057,0,0,1-.058-.058V544.3a.058.058,0,0,1,.058-.057h.557a.058.058,0,0,1,.058.057v.557a.057.057,0,0,1-.058.058" fill="url(#linear-gradient)"/>
        <path id="Path_168" data-name="Path 168" d="M622.9,578.832h-.557a.058.058,0,0,1-.058-.058v-.557a.057.057,0,0,1,.058-.057h.557a.057.057,0,0,1,.058.057v.557a.058.058,0,0,1-.058.058" fill="url(#linear-gradient)"/>
        <path id="Path_169" data-name="Path 169" d="M468.232,112.108H464.7a1.971,1.971,0,0,1-1.971-1.972V106.6a1.971,1.971,0,0,1,1.971-1.972h3.534A1.972,1.972,0,0,1,470.2,106.6v3.533a1.972,1.972,0,0,1-1.971,1.972" fill="url(#linear-gradient)"/>
        <path id="Path_170" data-name="Path 170" d="M1521.958,795.735h-.557a.058.058,0,0,1-.058-.058v-.557a.057.057,0,0,1,.058-.057h.557a.057.057,0,0,1,.058.057v.557a.058.058,0,0,1-.058.058" fill="url(#linear-gradient)"/>
        <path id="Path_171" data-name="Path 171" d="M593.657,131.183H593.1a.058.058,0,0,1-.058-.058v-.557a.057.057,0,0,1,.058-.057h.557a.057.057,0,0,1,.058.057v.557a.058.058,0,0,1-.058.058" fill="url(#linear-gradient)"/>
        <path id="Path_172" data-name="Path 172" d="M1581.431,614.131h-.557a.058.058,0,0,1-.058-.058v-.557a.057.057,0,0,1,.058-.057h.557a.057.057,0,0,1,.058.057v.557a.058.058,0,0,1-.058.058" fill="url(#linear-gradient)"/>
        <path id="Path_173" data-name="Path 173" d="M533.555,1079.061h-2.463a.96.96,0,0,1-.96-.96v-2.463a.96.96,0,0,1,.96-.961h2.463a.96.96,0,0,1,.96.961v2.463a.96.96,0,0,1-.96.96" fill="url(#linear-gradient)"/>
        <path id="Path_174" data-name="Path 174" d="M269.4,232.038h-.557a.058.058,0,0,1-.058-.058v-.557a.057.057,0,0,1,.058-.057h.557a.057.057,0,0,1,.058.057v.557a.058.058,0,0,1-.058.058" fill="url(#linear-gradient)"/>
        <path id="Path_175" data-name="Path 175" d="M467.446,606.617h-.557a.058.058,0,0,1-.058-.058V606a.057.057,0,0,1,.058-.057h.557a.057.057,0,0,1,.058.057v.557a.058.058,0,0,1-.058.058" fill="url(#linear-gradient)"/>
        <path id="Path_177" data-name="Path 177" d="M707.857,315.655H707.3a.058.058,0,0,1-.058-.058v-.557a.057.057,0,0,1,.058-.057h.557a.057.057,0,0,1,.058.057v.557a.058.058,0,0,1-.058.058" fill="url(#linear-gradient)"/>
        <path id="Path_178" data-name="Path 178" d="M800.377,61.122h-3.722a2.077,2.077,0,0,1-2.077-2.077V55.323a2.077,2.077,0,0,1,2.077-2.078h3.722a2.077,2.077,0,0,1,2.077,2.078v3.722a2.077,2.077,0,0,1-2.077,2.077" fill="url(#linear-gradient)"/>
        <path id="Path_179" data-name="Path 179" d="M68.6,843.493h-.557a.058.058,0,0,1-.058-.058v-.557a.058.058,0,0,1,.058-.057H68.6a.058.058,0,0,1,.058.057v.557a.058.058,0,0,1-.058.058" fill="url(#linear-gradient)"/>
        <path id="Path_180" data-name="Path 180" d="M1750.532,60.321h-.557a.057.057,0,0,1-.058-.058v-.557a.057.057,0,0,1,.058-.057h.557a.057.057,0,0,1,.058.057v.557a.057.057,0,0,1-.058.058" fill="url(#linear-gradient)"/>
        <path id="Path_181" data-name="Path 181" d="M246.079,826.75h-.557a.058.058,0,0,1-.058-.058v-.557a.058.058,0,0,1,.058-.057h.557a.058.058,0,0,1,.058.057v.557a.058.058,0,0,1-.058.058" fill="url(#linear-gradient)"/>
        <path id="Path_182" data-name="Path 182" d="M895.532,919.859h-.557a.058.058,0,0,1-.058-.058v-.557a.058.058,0,0,1,.058-.057h.557a.058.058,0,0,1,.058.057v.557a.058.058,0,0,1-.058.058" fill="url(#linear-gradient)"/>
        <path id="Path_183" data-name="Path 183" d="M1911.372,1030.436h-.557a.058.058,0,0,1-.058-.058v-.557a.057.057,0,0,1,.058-.057h.557a.057.057,0,0,1,.058.057v.557a.058.058,0,0,1-.058.058" fill="url(#linear-gradient)"/>
        <path id="Path_184" data-name="Path 184" d="M897.67,513.436h-3.427a1.913,1.913,0,0,1-1.913-1.913V508.1a1.914,1.914,0,0,1,1.913-1.913h3.427a1.914,1.914,0,0,1,1.913,1.913v3.427a1.913,1.913,0,0,1-1.913,1.913" fill="url(#linear-gradient)"/>
        <path id="Path_185" data-name="Path 185" d="M1089.3,534.7h-.557a.058.058,0,0,1-.058-.058v-.557a.057.057,0,0,1,.058-.057h.557a.057.057,0,0,1,.058.057v.557a.058.058,0,0,1-.058.058" fill="url(#linear-gradient)"/>
        <path id="Path_186" data-name="Path 186" d="M1557.114,491h-.557a.058.058,0,0,1-.058-.058v-.557a.057.057,0,0,1,.058-.057h.557a.057.057,0,0,1,.058.057v.557a.058.058,0,0,1-.058.058" fill="url(#linear-gradient)"/>
        <path id="Path_187" data-name="Path 187" d="M1393.931,502.862h-.557a.058.058,0,0,1-.058-.058v-.557a.057.057,0,0,1,.058-.057h.557a.057.057,0,0,1,.058.057v.557a.058.058,0,0,1-.058.058" fill="url(#linear-gradient)"/>
        <path id="Path_188" data-name="Path 188" d="M1341.888,983.5h-1a.159.159,0,0,1-.159-.159v-1a.159.159,0,0,1,.159-.159h1a.159.159,0,0,1,.159.159v1a.159.159,0,0,1-.159.159" fill="url(#linear-gradient)"/>
        <path id="Path_189" data-name="Path 189" d="M233.482,352.272h-.557a.058.058,0,0,1-.058-.058v-.557a.057.057,0,0,1,.058-.057h.557a.057.057,0,0,1,.058.057v.557a.058.058,0,0,1-.058.058" fill="url(#linear-gradient)"/>
        <path id="Path_190" data-name="Path 190" d="M1699.732,435.461h-.557a.058.058,0,0,1-.059-.058v-.557a.057.057,0,0,1,.059-.057h.557a.057.057,0,0,1,.058.057v.557a.058.058,0,0,1-.058.058" fill="url(#linear-gradient)"/>
        <path id="Path_191" data-name="Path 191" d="M1410.864,423.134h-.557a.058.058,0,0,1-.058-.058v-.557a.057.057,0,0,1,.058-.057h.557a.057.057,0,0,1,.058.057v.557a.058.058,0,0,1-.058.058" fill="url(#linear-gradient)"/>
        <path id="Path_192" data-name="Path 192" d="M749.3,101.01h-3.168a1.768,1.768,0,0,1-1.768-1.768V96.074a1.768,1.768,0,0,1,1.768-1.769H749.3a1.768,1.768,0,0,1,1.768,1.769v3.168a1.768,1.768,0,0,1-1.768,1.768" fill="url(#linear-gradient)"/>
        <path id="Path_193" data-name="Path 193" d="M9.3,765.512H8.745a.058.058,0,0,1-.058-.058V764.9a.057.057,0,0,1,.058-.057H9.3a.057.057,0,0,1,.058.057v.557a.058.058,0,0,1-.058.058" fill="url(#linear-gradient)"/>
        <path id="Path_194" data-name="Path 194" d="M356.81,936.182h-3.347a1.868,1.868,0,0,1-1.869-1.868v-3.347a1.869,1.869,0,0,1,1.869-1.869h3.347a1.868,1.868,0,0,1,1.868,1.869v3.347a1.868,1.868,0,0,1-1.868,1.868" fill="url(#linear-gradient)"/>
        <path id="Path_195" data-name="Path 195" d="M335.2,181.578h-.557a.058.058,0,0,1-.058-.058v-.557a.057.057,0,0,1,.058-.057h.557a.057.057,0,0,1,.058.057v.557a.058.058,0,0,1-.058.058" fill="url(#linear-gradient)"/>
        <path id="Path_196" data-name="Path 196" d="M1673.657,913.762h-.557a.058.058,0,0,1-.058-.058v-.557a.058.058,0,0,1,.058-.057h.557a.058.058,0,0,1,.058.057v.557a.058.058,0,0,1-.058.058" fill="url(#linear-gradient)"/>
        <path id="Path_197" data-name="Path 197" d="M1634.224,956.246h-.557a.058.058,0,0,1-.058-.058v-.557a.057.057,0,0,1,.058-.057h.557a.057.057,0,0,1,.058.057v.557a.058.058,0,0,1-.058.058" fill="url(#linear-gradient)"/>
        <path id="Path_198" data-name="Path 198" d="M971.88,1033.436h-.557a.058.058,0,0,1-.058-.058v-.557a.057.057,0,0,1,.058-.057h.557a.057.057,0,0,1,.058.057v.557a.058.058,0,0,1-.058.058" fill="url(#linear-gradient)"/>
        <path id="Path_199" data-name="Path 199" d="M571.45,388.033h-.557a.058.058,0,0,1-.058-.058v-.557a.057.057,0,0,1,.058-.057h.557a.057.057,0,0,1,.058.057v.557a.058.058,0,0,1-.058.058" fill="url(#linear-gradient)"/>
        <path id="Path_200" data-name="Path 200" d="M1275.722,934.636h-5.78a3.225,3.225,0,0,1-3.225-3.226v-5.779a3.225,3.225,0,0,1,3.225-3.226h5.78a3.226,3.226,0,0,1,3.226,3.226v5.779a3.226,3.226,0,0,1-3.226,3.226" fill="url(#linear-gradient)"/>
        <path id="Path_201" data-name="Path 201" d="M250.2,493.423h-6.1a3.4,3.4,0,0,1-3.4-3.4v-6.1a3.4,3.4,0,0,1,3.4-3.4h6.1a3.4,3.4,0,0,1,3.4,3.4v6.1a3.4,3.4,0,0,1-3.4,3.4" fill="url(#linear-gradient)"/>
        <path id="Path_202" data-name="Path 202" d="M1180.178,832.568H1174.7a3.055,3.055,0,0,1-3.055-3.055v-5.474a3.055,3.055,0,0,1,3.055-3.055h5.474a3.055,3.055,0,0,1,3.055,3.055v5.474a3.055,3.055,0,0,1-3.055,3.055" fill="url(#linear-gradient)"/>
        <path id="Path_203" data-name="Path 203" d="M1097.343,448.407h-2.81a1.364,1.364,0,0,1-1.364-1.364v-2.81a1.364,1.364,0,0,1,1.364-1.364h2.81a1.364,1.364,0,0,1,1.364,1.364v2.81a1.364,1.364,0,0,1-1.364,1.364" fill="url(#linear-gradient)"/>
        <path id="Path_204" data-name="Path 204" d="M1906.394,658.53h-.8a.105.105,0,0,1-.106-.106v-.8a.105.105,0,0,1,.106-.106h.8a.106.106,0,0,1,.106.106v.8a.106.106,0,0,1-.106.106" fill="url(#linear-gradient)"/>
        <path id="Path_205" data-name="Path 205" d="M67.429,36.265h-.8a.105.105,0,0,1-.106-.106v-.8a.105.105,0,0,1,.106-.106h.8a.106.106,0,0,1,.106.106v.8a.106.106,0,0,1-.106.106" fill="url(#linear-gradient)"/>
        <path id="Path_206" data-name="Path 206" d="M1185.8,440.318h-4.877a2.722,2.722,0,0,1-2.722-2.722V432.72a2.722,2.722,0,0,1,2.722-2.722h4.877a2.722,2.722,0,0,1,2.722,2.722V437.6a2.722,2.722,0,0,1-2.722,2.722" fill="url(#linear-gradient)"/>
        <path id="Path_207" data-name="Path 207" d="M849.656,136.229h-.8a.105.105,0,0,1-.106-.106v-.8a.105.105,0,0,1,.106-.106h.8a.105.105,0,0,1,.106.106v.8a.105.105,0,0,1-.106.106" fill="url(#linear-gradient)"/>
        <path id="Path_208" data-name="Path 208" d="M1161.316,23.641h-.8a.106.106,0,0,1-.106-.106v-.8a.106.106,0,0,1,.106-.106h.8a.106.106,0,0,1,.106.106v.8a.106.106,0,0,1-.106.106" fill="url(#linear-gradient)"/>
        <path id="Path_209" data-name="Path 209" d="M601.863,865.183h-.8a.105.105,0,0,1-.106-.106v-.8a.105.105,0,0,1,.106-.106h.8a.105.105,0,0,1,.106.106v.8a.105.105,0,0,1-.106.106" fill="url(#linear-gradient)"/>
        <path id="Path_210" data-name="Path 210" d="M1227.293,509.523h-.8a.105.105,0,0,1-.106-.106v-.8a.105.105,0,0,1,.106-.106h.8a.106.106,0,0,1,.106.106v.8a.106.106,0,0,1-.106.106" fill="url(#linear-gradient)"/>
        <path id="Path_211" data-name="Path 211" d="M1324.075,315.6h-3.346a1.867,1.867,0,0,1-1.867-1.867v-3.346a1.867,1.867,0,0,1,1.867-1.867h3.346a1.867,1.867,0,0,1,1.867,1.867v3.346a1.867,1.867,0,0,1-1.867,1.867" fill="url(#linear-gradient)"/>
        <path id="Path_212" data-name="Path 212" d="M1492.218,603.712h-3.3a1.845,1.845,0,0,1-1.844-1.844v-3.3a1.845,1.845,0,0,1,1.844-1.844h3.3a1.845,1.845,0,0,1,1.844,1.844v3.3a1.845,1.845,0,0,1-1.844,1.844" fill="url(#linear-gradient)"/>
        <path id="Path_213" data-name="Path 213" d="M1575.554,166.782h-2.162a.709.709,0,0,1-.709-.709v-2.162a.709.709,0,0,1,.709-.708h2.162a.709.709,0,0,1,.709.708v2.162a.709.709,0,0,1-.709.709" fill="url(#linear-gradient)"/>
        <path id="Path_214" data-name="Path 214" d="M94.974,729.02H92.292a1.2,1.2,0,0,1-1.2-1.2v-2.682a1.2,1.2,0,0,1,1.2-1.2h2.682a1.2,1.2,0,0,1,1.2,1.2v2.682a1.2,1.2,0,0,1-1.2,1.2" fill="url(#linear-gradient)"/>
        <path id="Path_215" data-name="Path 215" d="M257.918,741.092h-.8a.105.105,0,0,1-.106-.106v-.8a.105.105,0,0,1,.106-.106h.8a.106.106,0,0,1,.106.106v.8a.106.106,0,0,1-.106.106" fill="url(#linear-gradient)"/>
        <path id="Path_216" data-name="Path 216" d="M962.916,721.561h-1.73a.443.443,0,0,1-.443-.443v-1.73a.443.443,0,0,1,.443-.443h1.73a.443.443,0,0,1,.443.443v1.73a.443.443,0,0,1-.443.443" fill="url(#linear-gradient)"/>
        <path id="Path_217" data-name="Path 217" d="M1287.234,504.286h-3.844a2.145,2.145,0,0,1-2.145-2.145V498.3a2.145,2.145,0,0,1,2.145-2.146h3.844a2.145,2.145,0,0,1,2.145,2.146v3.844a2.145,2.145,0,0,1-2.145,2.145" fill="url(#linear-gradient)"/>
        <path id="Path_218" data-name="Path 218" d="M1461.257,172.187h-.8a.105.105,0,0,1-.106-.106v-.8a.105.105,0,0,1,.106-.106h.8a.106.106,0,0,1,.106.106v.8a.106.106,0,0,1-.106.106" fill="url(#linear-gradient)"/>
        <path id="Path_219" data-name="Path 219" d="M1096.57,205.377h-.8a.105.105,0,0,1-.106-.106v-.8a.105.105,0,0,1,.106-.106h.8a.106.106,0,0,1,.106.106v.8a.106.106,0,0,1-.106.106" fill="url(#linear-gradient)"/>
        <path id="Path_220" data-name="Path 220" d="M1863.8,215.99h-.8a.105.105,0,0,1-.106-.106v-.8a.105.105,0,0,1,.106-.106h.8a.106.106,0,0,1,.1.106v.8a.106.106,0,0,1-.1.106" fill="url(#linear-gradient)"/>
        <path id="Path_221" data-name="Path 221" d="M1704.422,747.783h-.8a.105.105,0,0,1-.106-.106v-.8a.105.105,0,0,1,.106-.106h.8a.106.106,0,0,1,.1.106v.8a.106.106,0,0,1-.1.106" fill="url(#linear-gradient)"/>
        <path id="Path_222" data-name="Path 222" d="M207.62,764.846h-3.209a1.79,1.79,0,0,1-1.789-1.79v-3.208a1.79,1.79,0,0,1,1.789-1.791h3.209a1.79,1.79,0,0,1,1.79,1.791v3.208a1.79,1.79,0,0,1-1.79,1.79" fill="url(#linear-gradient)"/>
        <path id="Path_223" data-name="Path 223" d="M777.761,1035.482h-.8a.105.105,0,0,1-.106-.106v-.8a.105.105,0,0,1,.106-.106h.8a.105.105,0,0,1,.106.106v.8a.105.105,0,0,1-.106.106" fill="url(#linear-gradient)"/>
        <path id="Path_224" data-name="Path 224" d="M23.777,551.941h-.8a.105.105,0,0,1-.106-.106v-.8a.105.105,0,0,1,.106-.106h.8a.106.106,0,0,1,.106.106v.8a.106.106,0,0,1-.106.106" fill="url(#linear-gradient)"/>
        <path id="Path_225" data-name="Path 225" d="M955.3,496.108h-.8A.105.105,0,0,1,954.4,496v-.8a.105.105,0,0,1,.106-.106h.8a.105.105,0,0,1,.106.106v.8a.105.105,0,0,1-.106.106" fill="url(#linear-gradient)"/>
        <path id="Path_226" data-name="Path 226" d="M1843.2,96.893h-3.078a1.718,1.718,0,0,1-1.718-1.718V92.1a1.718,1.718,0,0,1,1.718-1.718h3.078a1.718,1.718,0,0,1,1.718,1.718v3.078a1.718,1.718,0,0,1-1.718,1.718" fill="url(#linear-gradient)"/>
        <path id="Path_227" data-name="Path 227" d="M460.876,948.967h-5.462a3.049,3.049,0,0,1-3.049-3.049v-5.462a3.049,3.049,0,0,1,3.049-3.049h5.462a3.049,3.049,0,0,1,3.049,3.049v5.462a3.049,3.049,0,0,1-3.049,3.049" fill="url(#linear-gradient)"/>
        <path id="Path_228" data-name="Path 228" d="M235.711,600.325h-.8a.105.105,0,0,1-.106-.106v-.8a.105.105,0,0,1,.106-.106h.8a.106.106,0,0,1,.106.106v.8a.106.106,0,0,1-.106.106" fill="url(#linear-gradient)"/>
        <path id="Path_229" data-name="Path 229" d="M1632,234.381h-.8a.105.105,0,0,1-.106-.106v-.8a.105.105,0,0,1,.106-.106h.8a.106.106,0,0,1,.106.106v.8a.106.106,0,0,1-.106.106" fill="url(#linear-gradient)"/>
        <path id="Path_230" data-name="Path 230" d="M1076.238,31.617h-.8a.105.105,0,0,1-.106-.106v-.8a.105.105,0,0,1,.106-.106h.8a.106.106,0,0,1,.106.106v.8a.106.106,0,0,1-.106.106" fill="url(#linear-gradient)"/>
        <path id="Path_231" data-name="Path 231" d="M341.883,328.644h-.8a.105.105,0,0,1-.106-.106v-.8a.105.105,0,0,1,.106-.106h.8a.106.106,0,0,1,.105.106v.8a.106.106,0,0,1-.105.106" fill="url(#linear-gradient)"/>
        <path id="Path_232" data-name="Path 232" d="M786.609,957.5h-.8a.105.105,0,0,1-.106-.106v-.8a.105.105,0,0,1,.106-.106h.8a.105.105,0,0,1,.106.106v.8a.105.105,0,0,1-.106.106" fill="url(#linear-gradient)"/>
        <path id="Path_233" data-name="Path 233" d="M1250.433,425.942h-1.374a.282.282,0,0,1-.282-.282v-1.374a.283.283,0,0,1,.282-.283h1.374a.283.283,0,0,1,.282.283v1.374a.282.282,0,0,1-.282.282" fill="url(#linear-gradient)"/>
        <path id="Path_234" data-name="Path 234" d="M1755.925,543.207h-.8a.105.105,0,0,1-.106-.106v-.8a.105.105,0,0,1,.106-.106h.8a.106.106,0,0,1,.106.106v.8a.106.106,0,0,1-.106.106" fill="url(#linear-gradient)"/>
        <path id="Path_235" data-name="Path 235" d="M1263.386,1060.729h-.8a.105.105,0,0,1-.106-.106v-.8a.105.105,0,0,1,.106-.106h.8a.106.106,0,0,1,.106.106v.8a.106.106,0,0,1-.106.106" fill="url(#linear-gradient)"/>
        <path id="Path_236" data-name="Path 236" d="M1552.452,871.14h-3.3a1.843,1.843,0,0,1-1.843-1.844v-3.3a1.843,1.843,0,0,1,1.843-1.844h3.3a1.844,1.844,0,0,1,1.844,1.844v3.3a1.844,1.844,0,0,1-1.844,1.844" fill="url(#linear-gradient)"/>
        <path id="Path_237" data-name="Path 237" d="M1312.664,423.961h-.8a.105.105,0,0,1-.106-.106v-.8a.105.105,0,0,1,.106-.106h.8a.106.106,0,0,1,.106.106v.8a.106.106,0,0,1-.106.106" fill="url(#linear-gradient)"/>
        <path id="Path_238" data-name="Path 238" d="M302.449,994.679h-.8a.105.105,0,0,1-.106-.106v-.8a.105.105,0,0,1,.106-.106h.8a.106.106,0,0,1,.106.106v.8a.106.106,0,0,1-.106.106" fill="url(#linear-gradient)"/>
        <path id="Path_239" data-name="Path 239" d="M1915.883,14.26h-4.07a2.272,2.272,0,0,1-2.272-2.272V7.918a2.271,2.271,0,0,1,2.272-2.271h4.07a2.272,2.272,0,0,1,2.272,2.271v4.07a2.272,2.272,0,0,1-2.272,2.272" fill="url(#linear-gradient)"/>
        <path id="Path_240" data-name="Path 240" d="M314.4,878.861h-.8a.105.105,0,0,1-.106-.106v-.8a.105.105,0,0,1,.106-.106h.8a.106.106,0,0,1,.106.106v.8a.106.106,0,0,1-.106.106" fill="url(#linear-gradient)"/>
        <path id="Path_241" data-name="Path 241" d="M1859.77,631.192H1854.6a2.883,2.883,0,0,1-2.883-2.883v-5.165a2.884,2.884,0,0,1,2.883-2.884h5.166a2.883,2.883,0,0,1,2.883,2.884v5.165a2.883,2.883,0,0,1-2.883,2.883" fill="url(#linear-gradient)"/>
        <path id="Path_242" data-name="Path 242" d="M527.332,745.871h-.8a.105.105,0,0,1-.106-.106v-.8a.105.105,0,0,1,.106-.106h.8a.105.105,0,0,1,.106.106v.8a.105.105,0,0,1-.106.106" fill="url(#linear-gradient)"/>
        <path id="Path_243" data-name="Path 243" d="M654.3,770.591h-.8a.105.105,0,0,1-.106-.106v-.8a.105.105,0,0,1,.106-.106h.8a.105.105,0,0,1,.106.106v.8a.105.105,0,0,1-.106.106" fill="url(#linear-gradient)"/>
        <path id="Path_244" data-name="Path 244" d="M1604.761,329.872h-2.8a1.353,1.353,0,0,1-1.353-1.353v-2.8a1.353,1.353,0,0,1,1.353-1.353h2.8a1.353,1.353,0,0,1,1.353,1.353v2.8a1.353,1.353,0,0,1-1.353,1.353" fill="url(#linear-gradient)"/>
        <path id="Path_245" data-name="Path 245" d="M1716.761,387.263h-.865a.123.123,0,0,1-.123-.122v-.866a.123.123,0,0,1,.123-.122h.865a.122.122,0,0,1,.122.122v.866a.122.122,0,0,1-.122.122" fill="url(#linear-gradient)"/>
        <path id="Path_246" data-name="Path 246" d="M465.064,11.136H463.3a.462.462,0,0,1-.462-.463V8.9a.462.462,0,0,1,.462-.463h1.769a.463.463,0,0,1,.463.463v1.768a.463.463,0,0,1-.463.463" fill="url(#linear-gradient)"/>
        <path id="Path_247" data-name="Path 247" d="M1252.957,306.594h-.8a.105.105,0,0,1-.106-.106v-.8a.105.105,0,0,1,.106-.106h.8a.106.106,0,0,1,.106.106v.8a.106.106,0,0,1-.106.106" fill="url(#linear-gradient)"/>
        <path id="Path_248" data-name="Path 248" d="M391.284,311.108h-1.513a.34.34,0,0,1-.34-.34v-1.513a.34.34,0,0,1,.34-.339h1.513a.34.34,0,0,1,.34.339v1.513a.34.34,0,0,1-.34.34" fill="url(#linear-gradient)"/>
        <path id="Path_249" data-name="Path 249" d="M501.2,438.793h-.8a.105.105,0,0,1-.106-.106v-.8a.105.105,0,0,1,.106-.106h.8a.106.106,0,0,1,.106.106v.8a.106.106,0,0,1-.106.106" fill="url(#linear-gradient)"/>
        <path id="Path_250" data-name="Path 250" d="M1204.939,333.8H1202.8a.7.7,0,0,1-.7-.695v-2.144a.7.7,0,0,1,.7-.7h2.144a.7.7,0,0,1,.7.7V333.1a.7.7,0,0,1-.7.695" fill="url(#linear-gradient)"/>
        <path id="Path_251" data-name="Path 251" d="M594.479,649.406h-1.263a.241.241,0,0,1-.241-.241V647.9a.241.241,0,0,1,.241-.241h1.263a.24.24,0,0,1,.24.241v1.261a.24.24,0,0,1-.24.241" fill="url(#linear-gradient)"/>
        <path id="Path_252" data-name="Path 252" d="M1760.379,717.527h-.8a.106.106,0,0,1-.107-.106v-.8a.106.106,0,0,1,.107-.106h.8a.105.105,0,0,1,.1.106v.8a.105.105,0,0,1-.1.106" fill="url(#linear-gradient)"/>
        <path id="Path_253" data-name="Path 253" d="M955.242,52.876h-.8a.105.105,0,0,1-.106-.106v-.8a.105.105,0,0,1,.106-.106h.8a.105.105,0,0,1,.106.106v.8a.105.105,0,0,1-.106.106" fill="url(#linear-gradient)"/>
        <path id="Path_254" data-name="Path 254" d="M223.044,431.876H220.16a1.473,1.473,0,0,1-1.474-1.473v-2.884a1.473,1.473,0,0,1,1.474-1.473h2.884a1.472,1.472,0,0,1,1.472,1.473V430.4a1.473,1.473,0,0,1-1.472,1.473" fill="url(#linear-gradient)"/>
        <path id="Path_255" data-name="Path 255" d="M936.618,970.095H931a3.137,3.137,0,0,1-3.137-3.136v-5.62A3.137,3.137,0,0,1,931,958.2h5.619a3.136,3.136,0,0,1,3.136,3.136v5.62a3.136,3.136,0,0,1-3.136,3.136" fill="url(#linear-gradient)"/>
        <path id="Path_256" data-name="Path 256" d="M216.228,661.965h-1.557a.359.359,0,0,1-.359-.359v-1.557a.359.359,0,0,1,.359-.36h1.557a.36.36,0,0,1,.359.36v1.557a.359.359,0,0,1-.359.359" fill="url(#linear-gradient)"/>
        <path id="Path_257" data-name="Path 257" d="M1918.509,140.628h-2.174a.717.717,0,0,1-.718-.718v-2.174a.717.717,0,0,1,.718-.717h2.174a.718.718,0,0,1,.718.717v2.174a.718.718,0,0,1-.718.718" fill="url(#linear-gradient)"/>
        <path id="Path_258" data-name="Path 258" d="M1744.225,461.749h-.951a.144.144,0,0,1-.144-.144v-.951a.144.144,0,0,1,.144-.145h.951a.145.145,0,0,1,.145.145v.951a.145.145,0,0,1-.145.144" fill="url(#linear-gradient)"/>
        <path id="Path_259" data-name="Path 259" d="M1211.656,200.478h-2.8a1.355,1.355,0,0,1-1.355-1.355v-2.8a1.355,1.355,0,0,1,1.355-1.354h2.8a1.355,1.355,0,0,1,1.355,1.354v2.8a1.355,1.355,0,0,1-1.355,1.355" fill="url(#linear-gradient)"/>
        <path id="Path_260" data-name="Path 260" d="M1067.859,888.188h-.8a.105.105,0,0,1-.106-.106v-.8a.105.105,0,0,1,.106-.106h.8a.106.106,0,0,1,.106.106v.8a.106.106,0,0,1-.106.106" fill="url(#linear-gradient)"/>
        <path id="Path_261" data-name="Path 261" d="M1149.477,185.836h-3.72a2.075,2.075,0,0,1-2.075-2.076v-3.718a2.075,2.075,0,0,1,2.075-2.076h3.72a2.075,2.075,0,0,1,2.075,2.076v3.718a2.075,2.075,0,0,1-2.075,2.076" fill="url(#linear-gradient)"/>
        <path id="Path_262" data-name="Path 262" d="M472.254,666.572h-.8a.105.105,0,0,1-.106-.106v-.8a.105.105,0,0,1,.106-.106h.8a.106.106,0,0,1,.106.106v.8a.106.106,0,0,1-.106.106" fill="url(#linear-gradient)"/>
        <path id="Path_263" data-name="Path 263" d="M944.927,900.908h-1.964a.574.574,0,0,1-.575-.575V898.37a.575.575,0,0,1,.575-.574h1.964a.574.574,0,0,1,.575.574v1.963a.574.574,0,0,1-.575.575" fill="url(#linear-gradient)"/>
        <path id="Path_264" data-name="Path 264" d="M1023.211,577.55h-.8a.105.105,0,0,1-.106-.106v-.8a.105.105,0,0,1,.106-.106h.8a.105.105,0,0,1,.106.106v.8a.105.105,0,0,1-.106.106" fill="url(#linear-gradient)"/>
        <path id="Path_265" data-name="Path 265" d="M895.476,112.664h-.8a.105.105,0,0,1-.106-.106v-.8a.105.105,0,0,1,.106-.106h.8a.105.105,0,0,1,.106.106v.8a.105.105,0,0,1-.106.106" fill="url(#linear-gradient)"/>
        <path id="Path_266" data-name="Path 266" d="M19.148,295.421h-.8a.105.105,0,0,1-.106-.106v-.8a.105.105,0,0,1,.106-.106h.8a.106.106,0,0,1,.106.106v.8a.106.106,0,0,1-.106.106" fill="url(#linear-gradient)"/>
        <path id="Path_267" data-name="Path 267" d="M1696.687,145.721h-.8a.105.105,0,0,1-.106-.106v-.8a.105.105,0,0,1,.106-.106h.8a.106.106,0,0,1,.106.106v.8a.106.106,0,0,1-.106.106" fill="url(#linear-gradient)"/>
        <path id="Path_268" data-name="Path 268" d="M1283.594,671.658h-.9a.131.131,0,0,1-.131-.131v-.9a.131.131,0,0,1,.131-.13h.9a.13.13,0,0,1,.13.13v.9a.131.131,0,0,1-.13.131" fill="url(#linear-gradient)"/>
        <path id="Path_269" data-name="Path 269" d="M126.185,832.5h-4.752a2.652,2.652,0,0,1-2.652-2.652v-4.752a2.652,2.652,0,0,1,2.652-2.653h4.752a2.652,2.652,0,0,1,2.652,2.653v4.752a2.652,2.652,0,0,1-2.652,2.652" fill="url(#linear-gradient)"/>
        <path id="Path_270" data-name="Path 270" d="M274.609,669.228h-3.827a2.136,2.136,0,0,1-2.137-2.136v-3.828a2.136,2.136,0,0,1,2.137-2.136h3.827a2.136,2.136,0,0,1,2.136,2.136v3.828a2.136,2.136,0,0,1-2.136,2.136" fill="url(#linear-gradient)"/>
        <path id="Path_271" data-name="Path 271" d="M654.283,846.961h-3.1a1.729,1.729,0,0,1-1.729-1.729v-3.1a1.729,1.729,0,0,1,1.729-1.728h3.1a1.729,1.729,0,0,1,1.729,1.728v3.1a1.729,1.729,0,0,1-1.729,1.729" fill="url(#linear-gradient)"/>
        <path id="Path_272" data-name="Path 272" d="M1068.253,282.748h-1.35a.273.273,0,0,1-.273-.273v-1.35a.274.274,0,0,1,.273-.274h1.35a.274.274,0,0,1,.273.274v1.35a.273.273,0,0,1-.273.273" fill="url(#linear-gradient)"/>
        <path id="Path_273" data-name="Path 273" d="M1439.143,57.949h-3.09a1.725,1.725,0,0,1-1.725-1.725v-3.09a1.725,1.725,0,0,1,1.725-1.725h3.09a1.725,1.725,0,0,1,1.725,1.725v3.09a1.725,1.725,0,0,1-1.725,1.725" fill="url(#linear-gradient)"/>
        <path id="Path_274" data-name="Path 274" d="M1514.107,41.452h-1.73a.443.443,0,0,1-.443-.443v-1.73a.443.443,0,0,1,.443-.443h1.73a.443.443,0,0,1,.443.443v1.73a.443.443,0,0,1-.443.443" fill="url(#linear-gradient)"/>
        <path id="Path_275" data-name="Path 275" d="M1910.041,241.173h-1.409a.3.3,0,0,1-.3-.3v-1.409a.3.3,0,0,1,.3-.3h1.409a.3.3,0,0,1,.3.3v1.409a.3.3,0,0,1-.3.3" fill="url(#linear-gradient)"/>
        <path id="Path_276" data-name="Path 276" d="M370.418,449.076h-.8a.105.105,0,0,1-.106-.106v-.8a.105.105,0,0,1,.106-.106h.8a.106.106,0,0,1,.106.106v.8a.106.106,0,0,1-.106.106" fill="url(#linear-gradient)"/>
        <path id="Path_277" data-name="Path 277" d="M100.711,655.564h-.8a.105.105,0,0,1-.106-.106v-.8a.105.105,0,0,1,.106-.106h.8a.106.106,0,0,1,.106.106v.8a.106.106,0,0,1-.106.106" fill="url(#linear-gradient)"/>
        <path id="Path_278" data-name="Path 278" d="M467.573,792.8h-3.154a1.76,1.76,0,0,1-1.76-1.76V787.89a1.76,1.76,0,0,1,1.76-1.761h3.154a1.76,1.76,0,0,1,1.76,1.761v3.154a1.76,1.76,0,0,1-1.76,1.76" fill="url(#linear-gradient)"/>
        <path id="Path_279" data-name="Path 279" d="M1374.3,157.643h-2.893a1.487,1.487,0,0,1-1.487-1.487v-2.893a1.488,1.488,0,0,1,1.487-1.488h2.893a1.487,1.487,0,0,1,1.487,1.488v2.893a1.487,1.487,0,0,1-1.487,1.487" fill="url(#linear-gradient)"/>
        <path id="Path_280" data-name="Path 280" d="M547.547,278.019h-.8a.105.105,0,0,1-.106-.106v-.8a.105.105,0,0,1,.106-.106h.8a.105.105,0,0,1,.1.106v.8a.105.105,0,0,1-.1.106" fill="url(#linear-gradient)"/>
        <path id="Path_281" data-name="Path 281" d="M794.836,448.455h-2.368a.874.874,0,0,1-.874-.874v-2.368a.874.874,0,0,1,.874-.874h2.368a.874.874,0,0,1,.874.874v2.368a.874.874,0,0,1-.874.874" fill="url(#linear-gradient)"/>
        <path id="Path_282" data-name="Path 282" d="M1769.636,1.658h-.8a.105.105,0,0,1-.106-.106v-.8a.105.105,0,0,1,.106-.106h.8a.106.106,0,0,1,.106.106v.8a.106.106,0,0,1-.106.106" fill="url(#linear-gradient)"/>
        <path id="Path_283" data-name="Path 283" d="M1050.047,377.654h-.8a.105.105,0,0,1-.106-.106v-.8a.105.105,0,0,1,.106-.106h.8a.106.106,0,0,1,.1.106v.8a.106.106,0,0,1-.1.106" fill="url(#linear-gradient)"/>
        <path id="Path_284" data-name="Path 284" d="M349.324,1078.691h-.8a.105.105,0,0,1-.106-.106v-.8a.105.105,0,0,1,.106-.106h.8a.106.106,0,0,1,.106.106v.8a.106.106,0,0,1-.106.106" fill="url(#linear-gradient)"/>
        <path id="Path_285" data-name="Path 285" d="M258.588,161.132h-1.2a.219.219,0,0,1-.22-.219v-1.2a.219.219,0,0,1,.22-.219h1.2a.219.219,0,0,1,.219.219v1.2a.219.219,0,0,1-.219.219" fill="url(#linear-gradient)"/>
        <path id="Path_286" data-name="Path 286" d="M1699.763,228.936h-4.488a2.5,2.5,0,0,1-2.505-2.505v-4.487a2.5,2.5,0,0,1,2.505-2.505h4.488a2.5,2.5,0,0,1,2.505,2.505v4.487a2.5,2.5,0,0,1-2.505,2.505" fill="url(#linear-gradient)"/>
        <path id="Path_287" data-name="Path 287" d="M312.023,4.258h-2.132a.688.688,0,0,1-.688-.687V1.438a.688.688,0,0,1,.688-.687h2.132a.687.687,0,0,1,.687.687V3.571a.687.687,0,0,1-.687.687" fill="url(#linear-gradient)"/>
        <path id="Path_288" data-name="Path 288" d="M1519.274,93.9h-1.283a.248.248,0,0,1-.249-.249V92.369a.249.249,0,0,1,.249-.249h1.283a.25.25,0,0,1,.249.249v1.283a.249.249,0,0,1-.249.249" fill="url(#linear-gradient)"/>
        <path id="Path_289" data-name="Path 289" d="M1315.066,619.54h-.8a.106.106,0,0,1-.106-.106v-.8a.106.106,0,0,1,.106-.106h.8a.106.106,0,0,1,.106.106v.8a.106.106,0,0,1-.106.106" fill="url(#linear-gradient)"/>
        <path id="Path_290" data-name="Path 290" d="M1412.507,1011.719h-.8a.105.105,0,0,1-.106-.106v-.8a.105.105,0,0,1,.106-.106h.8a.106.106,0,0,1,.106.106v.8a.106.106,0,0,1-.106.106" fill="url(#linear-gradient)"/>
        <path id="Path_291" data-name="Path 291" d="M180.116,229.8h-2.459a.956.956,0,0,1-.957-.957v-2.459a.956.956,0,0,1,.957-.957h2.459a.956.956,0,0,1,.957.957v2.459a.956.956,0,0,1-.957.957" fill="url(#linear-gradient)"/>
        <path id="Path_292" data-name="Path 292" d="M1238.777,87.285h-.8a.105.105,0,0,1-.106-.106v-.8a.105.105,0,0,1,.106-.106h.8a.106.106,0,0,1,.106.106v.8a.106.106,0,0,1-.106.106" fill="url(#linear-gradient)"/>
        <path id="Path_293" data-name="Path 293" d="M1138.472,1041.211h-3.741a2.089,2.089,0,0,1-2.089-2.088v-3.742a2.089,2.089,0,0,1,2.089-2.088h3.741a2.088,2.088,0,0,1,2.088,2.088v3.742a2.088,2.088,0,0,1-2.088,2.088" fill="url(#linear-gradient)"/>
        <path id="Path_294" data-name="Path 294" d="M1269.091,173.881h-2.6a1.1,1.1,0,0,1-1.1-1.1v-2.6a1.1,1.1,0,0,1,1.1-1.1h2.6a1.1,1.1,0,0,1,1.1,1.1v2.6a1.1,1.1,0,0,1-1.1,1.1" fill="url(#linear-gradient)"/>
        <path id="Path_295" data-name="Path 295" d="M1437.82,223.472h-.8a.105.105,0,0,1-.106-.106v-.8a.105.105,0,0,1,.106-.106h.8a.106.106,0,0,1,.106.106v.8a.106.106,0,0,1-.106.106" fill="url(#linear-gradient)"/>
        <path id="Path_296" data-name="Path 296" d="M317.573,434.621H312.66a2.742,2.742,0,0,1-2.741-2.742v-4.912a2.741,2.741,0,0,1,2.741-2.742h4.913a2.742,2.742,0,0,1,2.742,2.742v4.912a2.742,2.742,0,0,1-2.742,2.742" fill="url(#linear-gradient)"/>
        <path id="Path_297" data-name="Path 297" d="M1004.409,889.6h-1.4a.29.29,0,0,1-.291-.29v-1.4a.292.292,0,0,1,.291-.292h1.4a.292.292,0,0,1,.291.292v1.4a.29.29,0,0,1-.291.29" fill="url(#linear-gradient)"/>
        <path id="Path_298" data-name="Path 298" d="M739.86,855.812h-4.329a2.416,2.416,0,0,1-2.416-2.416v-4.329a2.416,2.416,0,0,1,2.416-2.416h4.329a2.416,2.416,0,0,1,2.416,2.416V853.4a2.416,2.416,0,0,1-2.416,2.416" fill="url(#linear-gradient)"/>
        <path id="Path_299" data-name="Path 299" d="M1455.355,119.6h-4.108a2.293,2.293,0,0,1-2.293-2.293V113.2a2.293,2.293,0,0,1,2.293-2.293h4.108a2.293,2.293,0,0,1,2.293,2.293v4.108a2.293,2.293,0,0,1-2.293,2.293" fill="url(#linear-gradient)"/>
        <path id="Path_300" data-name="Path 300" d="M367.136,556.819h-.8a.105.105,0,0,1-.106-.106v-.8a.105.105,0,0,1,.106-.106h.8a.106.106,0,0,1,.106.106v.8a.106.106,0,0,1-.106.106" fill="url(#linear-gradient)"/>
        <path id="Path_301" data-name="Path 301" d="M11.472,713.063H7.863a2.014,2.014,0,0,1-2.014-2.014V707.44a2.014,2.014,0,0,1,2.014-2.014h3.609a2.014,2.014,0,0,1,2.014,2.014v3.609a2.014,2.014,0,0,1-2.014,2.014" fill="url(#linear-gradient)"/>
        <path id="Path_302" data-name="Path 302" d="M648.679,122.452h-.8a.105.105,0,0,1-.106-.106v-.8a.105.105,0,0,1,.106-.106h.8a.105.105,0,0,1,.106.106v.8a.105.105,0,0,1-.106.106" fill="url(#linear-gradient)"/>
        <path id="Path_303" data-name="Path 303" d="M478.584,725.527h-2.793a1.34,1.34,0,0,1-1.34-1.34v-2.793a1.34,1.34,0,0,1,1.34-1.34h2.793a1.34,1.34,0,0,1,1.34,1.34v2.793a1.34,1.34,0,0,1-1.34,1.34" fill="url(#linear-gradient)"/>
        <path id="Path_304" data-name="Path 304" d="M723.967,46.788h-1.489a.329.329,0,0,1-.329-.329V44.97a.329.329,0,0,1,.329-.329h1.489a.329.329,0,0,1,.329.329v1.489a.329.329,0,0,1-.329.329" fill="url(#linear-gradient)"/>
        <path id="Path_305" data-name="Path 305" d="M304.585,813.609h-5.654a3.156,3.156,0,0,1-3.155-3.156V804.8a3.156,3.156,0,0,1,3.155-3.156h5.654a3.156,3.156,0,0,1,3.156,3.156v5.653a3.156,3.156,0,0,1-3.156,3.156" fill="url(#linear-gradient)"/>
        <path id="Path_306" data-name="Path 306" d="M290.55,581.14h-4.773a2.664,2.664,0,0,1-2.664-2.664V573.7a2.664,2.664,0,0,1,2.664-2.664h4.773a2.664,2.664,0,0,1,2.664,2.664v4.773a2.664,2.664,0,0,1-2.664,2.664" fill="url(#linear-gradient)"/>
        <path id="Path_307" data-name="Path 307" d="M508.722,155.026h-2.249a.775.775,0,0,1-.774-.774V152a.775.775,0,0,1,.774-.774h2.249a.774.774,0,0,1,.774.774v2.249a.774.774,0,0,1-.774.774" fill="url(#linear-gradient)"/>
        <path id="Path_308" data-name="Path 308" d="M1109.519,750.057h-.8a.105.105,0,0,1-.106-.106v-.8a.105.105,0,0,1,.106-.106h.8a.106.106,0,0,1,.106.106v.8a.106.106,0,0,1-.106.106" fill="url(#linear-gradient)"/>
        <path id="Path_309" data-name="Path 309" d="M178.712,519.847h-.939a.142.142,0,0,1-.142-.141v-.94a.142.142,0,0,1,.142-.141h.939a.141.141,0,0,1,.141.141v.94a.141.141,0,0,1-.141.141" fill="url(#linear-gradient)"/>
        <path id="Path_310" data-name="Path 310" d="M1131.766,502.782h-2.4a.9.9,0,0,1-.9-.9v-2.4a.9.9,0,0,1,.9-.9h2.4a.9.9,0,0,1,.9.9v2.4a.9.9,0,0,1-.9.9" fill="url(#linear-gradient)"/>
        <path id="Path_311" data-name="Path 311" d="M746,608.7h-.8a.105.105,0,0,1-.106-.106v-.8a.105.105,0,0,1,.106-.106h.8a.105.105,0,0,1,.106.106v.8a.105.105,0,0,1-.106.106" fill="url(#linear-gradient)"/>
        <path id="Path_312" data-name="Path 312" d="M1374.224,758.653h-1.808a.484.484,0,0,1-.483-.484v-1.807a.483.483,0,0,1,.483-.484h1.808a.484.484,0,0,1,.484.484v1.807a.484.484,0,0,1-.484.484" fill="url(#linear-gradient)"/>
        <path id="Path_313" data-name="Path 313" d="M1282.371,749.6h-.8a.105.105,0,0,1-.106-.106v-.8a.105.105,0,0,1,.106-.106h.8a.106.106,0,0,1,.106.106v.8a.106.106,0,0,1-.106.106" fill="url(#linear-gradient)"/>
        <path id="Path_314" data-name="Path 314" d="M1398.328,93.844h-.8a.105.105,0,0,1-.106-.106v-.8a.105.105,0,0,1,.106-.106h.8a.106.106,0,0,1,.106.106v.8a.106.106,0,0,1-.106.106" fill="url(#linear-gradient)"/>
        <path id="Path_315" data-name="Path 315" d="M927.047,1074.747h-5.813a3.245,3.245,0,0,1-3.244-3.244v-5.813a3.244,3.244,0,0,1,3.244-3.244h5.813a3.243,3.243,0,0,1,3.244,3.244v5.813a3.244,3.244,0,0,1-3.244,3.244" fill="url(#linear-gradient)"/>
        <path id="Path_316" data-name="Path 316" d="M512.655,971.983h-1.794a.477.477,0,0,1-.477-.476v-1.8a.477.477,0,0,1,.477-.476h1.794a.476.476,0,0,1,.476.476v1.8a.476.476,0,0,1-.476.476" fill="url(#linear-gradient)"/>
        <path id="Path_317" data-name="Path 317" d="M403.642,679.9h-1.387a.288.288,0,0,1-.287-.287v-1.387a.287.287,0,0,1,.287-.287h1.387a.286.286,0,0,1,.287.287v1.387a.287.287,0,0,1-.287.287" fill="url(#linear-gradient)"/>
        <path id="Path_318" data-name="Path 318" d="M854.362,747.175h-2.825a1.384,1.384,0,0,1-1.384-1.384v-2.825a1.384,1.384,0,0,1,1.384-1.384h2.825a1.383,1.383,0,0,1,1.384,1.384v2.825a1.384,1.384,0,0,1-1.384,1.384" fill="url(#linear-gradient)"/>
        <path id="Path_319" data-name="Path 319" d="M967.8,806.988H963.45a2.427,2.427,0,0,1-2.427-2.427v-4.349a2.428,2.428,0,0,1,2.427-2.427H967.8a2.427,2.427,0,0,1,2.427,2.427v4.349a2.427,2.427,0,0,1-2.427,2.427" fill="url(#linear-gradient)"/>
        <path id="Path_320" data-name="Path 320" d="M1196.589,886.145h-.8a.105.105,0,0,1-.106-.106v-.8a.105.105,0,0,1,.106-.106h.8a.106.106,0,0,1,.106.106v.8a.106.106,0,0,1-.106.106" fill="url(#linear-gradient)"/>
        <path id="Path_321" data-name="Path 321" d="M1480.239,829.91h-2.431a.93.93,0,0,1-.93-.93v-2.431a.93.93,0,0,1,.93-.93h2.431a.929.929,0,0,1,.93.93v2.431a.929.929,0,0,1-.93.93" fill="url(#linear-gradient)"/>
        <path id="Path_322" data-name="Path 322" d="M869.168,810.5h-.8a.105.105,0,0,1-.106-.106v-.8a.105.105,0,0,1,.106-.106h.8a.105.105,0,0,1,.106.106v.8a.105.105,0,0,1-.106.106" fill="url(#linear-gradient)"/>
        <path id="Path_323" data-name="Path 323" d="M1732.429,1062.937h-.8a.105.105,0,0,1-.106-.106v-.8a.105.105,0,0,1,.106-.106h.8a.106.106,0,0,1,.106.106v.8a.106.106,0,0,1-.106.106" fill="url(#linear-gradient)"/>
        <path id="Path_324" data-name="Path 324" d="M1407.872,1078.635h-3.009a1.679,1.679,0,0,1-1.68-1.678v-3.01a1.681,1.681,0,0,1,1.68-1.68h3.009a1.679,1.679,0,0,1,1.679,1.68v3.01a1.678,1.678,0,0,1-1.679,1.678" fill="url(#linear-gradient)"/>
        <path id="Path_325" data-name="Path 325" d="M1326.21,797.361h-5.623a3.139,3.139,0,0,1-3.139-3.139V788.6a3.139,3.139,0,0,1,3.139-3.138h5.623a3.139,3.139,0,0,1,3.139,3.138v5.623a3.139,3.139,0,0,1-3.139,3.139" fill="url(#linear-gradient)"/>
        <path id="Path_326" data-name="Path 326" d="M1785.8,813.468h-3.122a1.743,1.743,0,0,1-1.743-1.743V808.6a1.743,1.743,0,0,1,1.743-1.742h3.122a1.743,1.743,0,0,1,1.743,1.742v3.122a1.743,1.743,0,0,1-1.743,1.743" fill="url(#linear-gradient)"/>
        <path id="Path_327" data-name="Path 327" d="M1787.755,1066.02h-2.7a1.216,1.216,0,0,1-1.216-1.216v-2.7a1.215,1.215,0,0,1,1.216-1.216h2.7a1.215,1.215,0,0,1,1.216,1.216v2.7a1.215,1.215,0,0,1-1.216,1.216" fill="url(#linear-gradient)"/>
        <path id="Path_328" data-name="Path 328" d="M381.375,726.689h-.8a.105.105,0,0,1-.106-.106v-.8a.105.105,0,0,1,.106-.106h.8a.106.106,0,0,1,.106.106v.8a.106.106,0,0,1-.106.106" fill="url(#linear-gradient)"/>
        <path id="Path_329" data-name="Path 329" d="M1243.523,255.64h-.8a.105.105,0,0,1-.106-.106v-.8a.105.105,0,0,1,.106-.106h.8a.106.106,0,0,1,.106.106v.8a.106.106,0,0,1-.106.106" fill="url(#linear-gradient)"/>
        <path id="Path_330" data-name="Path 330" d="M40.535,934.957h-.8a.105.105,0,0,1-.106-.106v-.8a.105.105,0,0,1,.106-.106h.8a.106.106,0,0,1,.106.106v.8a.106.106,0,0,1-.106.106" fill="url(#linear-gradient)"/>
        <path id="Path_331" data-name="Path 331" d="M1013.419,760.3h-4.3a2.4,2.4,0,0,1-2.4-2.4v-4.3a2.4,2.4,0,0,1,2.4-2.4h4.3a2.4,2.4,0,0,1,2.4,2.4v4.3a2.4,2.4,0,0,1-2.4,2.4" fill="url(#linear-gradient)"/>
        <path id="Path_332" data-name="Path 332" d="M1439.617,769.092H1437.1a1.011,1.011,0,0,1-1.012-1.011v-2.515a1.011,1.011,0,0,1,1.012-1.011h2.514a1.011,1.011,0,0,1,1.011,1.011v2.515a1.011,1.011,0,0,1-1.011,1.011" fill="url(#linear-gradient)"/>
        <path id="Path_333" data-name="Path 333" d="M1579.092,226.4h-2.911a1.518,1.518,0,0,1-1.518-1.517v-2.912a1.518,1.518,0,0,1,1.518-1.517h2.911a1.517,1.517,0,0,1,1.517,1.517v2.912a1.517,1.517,0,0,1-1.517,1.517" fill="url(#linear-gradient)"/>
        <path id="Path_334" data-name="Path 334" d="M750.728,672.325h-4.854a2.709,2.709,0,0,1-2.71-2.709v-4.855a2.709,2.709,0,0,1,2.71-2.709h4.854a2.709,2.709,0,0,1,2.709,2.709v4.855a2.709,2.709,0,0,1-2.709,2.709" fill="url(#linear-gradient)"/>
        <path id="Path_335" data-name="Path 335" d="M1364.988,223.406h-.8a.105.105,0,0,1-.106-.106v-.8a.105.105,0,0,1,.106-.106h.8a.106.106,0,0,1,.106.106v.8a.106.106,0,0,1-.106.106" fill="url(#linear-gradient)"/>
        <path id="Path_336" data-name="Path 336" d="M298.624,928.842h-1.349a.273.273,0,0,1-.273-.273V927.22a.274.274,0,0,1,.273-.274h1.349a.274.274,0,0,1,.273.274v1.349a.273.273,0,0,1-.273.273" fill="url(#linear-gradient)"/>
        <path id="Path_337" data-name="Path 337" d="M3.514,10.622H1.407a.67.67,0,0,1-.669-.669V7.846a.669.669,0,0,1,.669-.669H3.514a.668.668,0,0,1,.669.669V9.953a.669.669,0,0,1-.669.669" fill="url(#linear-gradient)"/>
        <path id="Path_338" data-name="Path 338" d="M1320.4,132.117h-4.782a2.668,2.668,0,0,1-2.67-2.668v-4.783a2.669,2.669,0,0,1,2.67-2.669h4.782a2.669,2.669,0,0,1,2.669,2.669v4.783a2.668,2.668,0,0,1-2.669,2.668" fill="url(#linear-gradient)"/>
        <path id="Path_339" data-name="Path 339" d="M1345.171,474.728h-3.819a2.132,2.132,0,0,1-2.132-2.132v-3.819a2.132,2.132,0,0,1,2.132-2.131h3.819a2.131,2.131,0,0,1,2.131,2.131V472.6a2.131,2.131,0,0,1-2.131,2.132" fill="url(#linear-gradient)"/>
        <path id="Path_340" data-name="Path 340" d="M503.994,837.845H501.24a1.287,1.287,0,0,1-1.287-1.287V833.8a1.287,1.287,0,0,1,1.287-1.287h2.754a1.287,1.287,0,0,1,1.287,1.287v2.754a1.287,1.287,0,0,1-1.287,1.287" fill="url(#linear-gradient)"/>
        <path id="Path_341" data-name="Path 341" d="M58.785,780.377h-.969a.149.149,0,0,1-.149-.149v-.969a.15.15,0,0,1,.149-.15h.969a.15.15,0,0,1,.149.15v.969a.149.149,0,0,1-.149.149" fill="url(#linear-gradient)"/>
        <path id="Path_342" data-name="Path 342" d="M801.949,116.287h-1.477a.324.324,0,0,1-.324-.324v-1.477a.324.324,0,0,1,.324-.324h1.477a.324.324,0,0,1,.324.324v1.477a.324.324,0,0,1-.324.324" fill="url(#linear-gradient)"/>
        <path id="Path_343" data-name="Path 343" d="M97.311,934.668H94.056a1.816,1.816,0,0,1-1.817-1.817V929.6a1.816,1.816,0,0,1,1.817-1.817h3.255a1.817,1.817,0,0,1,1.817,1.817v3.255a1.817,1.817,0,0,1-1.817,1.817" fill="url(#linear-gradient)"/>
        <path id="Path_344" data-name="Path 344" d="M747.117,541.328h-.8a.105.105,0,0,1-.106-.106v-.8a.105.105,0,0,1,.106-.106h.8a.105.105,0,0,1,.106.106v.8a.105.105,0,0,1-.106.106" fill="url(#linear-gradient)"/>
        <path id="Path_345" data-name="Path 345" d="M1617.617,555.088h-2.735a1.261,1.261,0,0,1-1.261-1.262v-2.734a1.261,1.261,0,0,1,1.261-1.262h2.735a1.262,1.262,0,0,1,1.262,1.262v2.734a1.262,1.262,0,0,1-1.262,1.262" fill="url(#linear-gradient)"/>
        <path id="Path_346" data-name="Path 346" d="M1585.593,803.253h-.8a.105.105,0,0,1-.106-.106v-.8a.105.105,0,0,1,.106-.106h.8a.106.106,0,0,1,.106.106v.8a.106.106,0,0,1-.106.106" fill="url(#linear-gradient)"/>
        <path id="Path_347" data-name="Path 347" d="M1500.867,1042.6h-.8a.105.105,0,0,1-.106-.106v-.8a.105.105,0,0,1,.106-.106h.8a.106.106,0,0,1,.106.106v.8a.106.106,0,0,1-.106.106" fill="url(#linear-gradient)"/>
        <path id="Path_348" data-name="Path 348" d="M540.164,875.6h-.8a.105.105,0,0,1-.106-.106v-.8a.105.105,0,0,1,.106-.106h.8a.105.105,0,0,1,.106.106v.8a.105.105,0,0,1-.106.106" fill="url(#linear-gradient)"/>
        <path id="Path_349" data-name="Path 349" d="M1341.179,666.86h-1.928a.554.554,0,0,1-.553-.553v-1.928a.554.554,0,0,1,.553-.553h1.928a.554.554,0,0,1,.553.553v1.928a.554.554,0,0,1-.553.553" fill="url(#linear-gradient)"/>
        <path id="Path_350" data-name="Path 350" d="M1783.464,914.226h-.8a.105.105,0,0,1-.106-.106v-.8a.105.105,0,0,1,.106-.106h.8a.106.106,0,0,1,.106.106v.8a.106.106,0,0,1-.106.106" fill="url(#linear-gradient)"/>
        <path id="Path_351" data-name="Path 351" d="M1438.712,476.278h-1.526a.346.346,0,0,1-.345-.345v-1.526a.346.346,0,0,1,.345-.345h1.526a.345.345,0,0,1,.345.345v1.526a.345.345,0,0,1-.345.345" fill="url(#linear-gradient)"/>
        <path id="Path_352" data-name="Path 352" d="M1023.635,494.568h-.942a.141.141,0,0,1-.141-.141v-.941a.142.142,0,0,1,.141-.142h.942a.142.142,0,0,1,.141.142v.941a.141.141,0,0,1-.141.141" fill="url(#linear-gradient)"/>
        <path id="Path_353" data-name="Path 353" d="M700.359,1043.161h-.8a.1.1,0,0,1-.106-.1v-.8a.106.106,0,0,1,.106-.107h.8a.106.106,0,0,1,.106.107v.8a.1.1,0,0,1-.106.1" fill="url(#linear-gradient)"/>
        <path id="Path_354" data-name="Path 354" d="M454.324,1074.275h-.8a.105.105,0,0,1-.106-.106v-.8a.105.105,0,0,1,.106-.106h.8a.106.106,0,0,1,.106.106v.8a.106.106,0,0,1-.106.106" fill="url(#linear-gradient)"/>
        <path id="Path_355" data-name="Path 355" d="M921.961,330.72h-.8a.105.105,0,0,1-.106-.106v-.8a.105.105,0,0,1,.106-.106h.8a.105.105,0,0,1,.106.106v.8a.105.105,0,0,1-.106.106" fill="url(#linear-gradient)"/>
        <path id="Path_356" data-name="Path 356" d="M1526.355,918.016h-.8a.105.105,0,0,1-.106-.106v-.8a.105.105,0,0,1,.106-.106h.8a.106.106,0,0,1,.106.106v.8a.106.106,0,0,1-.106.106" fill="url(#linear-gradient)"/>
        <path id="Path_357" data-name="Path 357" d="M596.578,258.259H594.75a.5.5,0,0,1-.5-.495v-1.829a.5.5,0,0,1,.5-.495h1.828a.5.5,0,0,1,.495.495v1.829a.5.5,0,0,1-.495.495" fill="url(#linear-gradient)"/>
        <path id="Path_358" data-name="Path 358" d="M1062.7,786.444h-.8a.105.105,0,0,1-.106-.106v-.8a.105.105,0,0,1,.106-.106h.8a.106.106,0,0,1,.106.106v.8a.106.106,0,0,1-.106.106" fill="url(#linear-gradient)"/>
        <path id="Path_359" data-name="Path 359" d="M1312.73,212.416h-2.922a1.533,1.533,0,0,1-1.533-1.534v-2.921a1.533,1.533,0,0,1,1.533-1.534h2.922a1.534,1.534,0,0,1,1.534,1.534v2.921a1.534,1.534,0,0,1-1.534,1.534" fill="url(#linear-gradient)"/>
        <path id="Path_360" data-name="Path 360" d="M1684.956,978.57h-2.53a1.027,1.027,0,0,1-1.027-1.027v-2.53a1.027,1.027,0,0,1,1.027-1.027h2.53a1.027,1.027,0,0,1,1.027,1.027v2.53a1.027,1.027,0,0,1-1.027,1.027" fill="url(#linear-gradient)"/>
        <path id="Path_361" data-name="Path 361" d="M433.826,567.758h-2.1a.668.668,0,0,1-.668-.668v-2.105a.668.668,0,0,1,.668-.668h2.1a.668.668,0,0,1,.668.668v2.105a.668.668,0,0,1-.668.668" fill="url(#linear-gradient)"/>
        <path id="Path_363" data-name="Path 363" d="M1919.217,377.392h-1.481a.326.326,0,0,1-.326-.326v-1.481a.326.326,0,0,1,.326-.326h1.481a.326.326,0,0,1,.326.326v1.481a.326.326,0,0,1-.326.326" fill="url(#linear-gradient)"/>
        <path id="Path_364" data-name="Path 364" d="M1563.363,566.313h-1.335a.268.268,0,0,1-.268-.267v-1.335a.267.267,0,0,1,.268-.267h1.335a.267.267,0,0,1,.267.267v1.335a.268.268,0,0,1-.267.267" fill="url(#linear-gradient)"/>
        <path id="Path_365" data-name="Path 365" d="M1704.318,809.121h-4.34a2.422,2.422,0,0,1-2.422-2.422v-4.34a2.422,2.422,0,0,1,2.422-2.423h4.34a2.422,2.422,0,0,1,2.422,2.423v4.34a2.422,2.422,0,0,1-2.422,2.422" fill="url(#linear-gradient)"/>
        <path id="Path_366" data-name="Path 366" d="M1062.4,729.256h-1.009a.16.16,0,0,1-.16-.16v-1.009a.16.16,0,0,1,.16-.16h1.009a.16.16,0,0,1,.161.16V729.1a.161.161,0,0,1-.161.16" fill="url(#linear-gradient)"/>
        <path id="Path_367" data-name="Path 367" d="M1528.265,448.881h-1.1a.188.188,0,0,1-.188-.187v-1.1a.188.188,0,0,1,.188-.187h1.1a.187.187,0,0,1,.187.187v1.1a.187.187,0,0,1-.187.187" fill="url(#linear-gradient)"/>
        <path id="Path_368" data-name="Path 368" d="M1005.875,5.715h-2.57a1.068,1.068,0,0,1-1.068-1.068V2.077a1.069,1.069,0,0,1,1.068-1.069h2.57a1.069,1.069,0,0,1,1.068,1.069v2.57a1.068,1.068,0,0,1-1.068,1.068" fill="url(#linear-gradient)"/>
        <path id="Path_369" data-name="Path 369" d="M932.976,651.339h-3.492a1.95,1.95,0,0,1-1.949-1.949V645.9a1.95,1.95,0,0,1,1.949-1.949h3.492a1.95,1.95,0,0,1,1.949,1.949v3.492a1.949,1.949,0,0,1-1.949,1.949" fill="url(#linear-gradient)"/>
        <path id="Path_370" data-name="Path 370" d="M1602.209,753.795h-2.035a.621.621,0,0,1-.621-.621v-2.035a.621.621,0,0,1,.621-.621h2.035a.621.621,0,0,1,.621.621v2.035a.621.621,0,0,1-.621.621" fill="url(#linear-gradient)"/>
        <path id="Path_371" data-name="Path 371" d="M517.047,60.273h-6.6a3.681,3.681,0,0,1-3.681-3.681V50a3.681,3.681,0,0,1,3.681-3.681h6.6A3.681,3.681,0,0,1,520.728,50v6.595a3.681,3.681,0,0,1-3.681,3.681" fill="url(#linear-gradient)"/>
        <path id="Path_372" data-name="Path 372" d="M125.73,222.549h-.8a.105.105,0,0,1-.106-.106v-.8a.105.105,0,0,1,.106-.106h.8a.106.106,0,0,1,.106.106v.8a.106.106,0,0,1-.106.106" fill="url(#linear-gradient)"/>
        <path id="Path_373" data-name="Path 373" d="M1665.047,44.109h-.8a.105.105,0,0,1-.106-.106v-.8a.105.105,0,0,1,.106-.106h.8a.106.106,0,0,1,.1.106V44a.106.106,0,0,1-.1.106" fill="url(#linear-gradient)"/>
        <path id="Path_374" data-name="Path 374" d="M640.007,1028.725h-.8a.105.105,0,0,1-.106-.106v-.8a.105.105,0,0,1,.106-.106h.8a.105.105,0,0,1,.106.106v.8a.105.105,0,0,1-.106.106" fill="url(#linear-gradient)"/>
        <path id="Path_375" data-name="Path 375" d="M740.563,371.567h-5.5a3.071,3.071,0,0,1-3.071-3.071v-5.5a3.071,3.071,0,0,1,3.071-3.071h5.5a3.071,3.071,0,0,1,3.071,3.071v5.5a3.071,3.071,0,0,1-3.071,3.071" fill="url(#linear-gradient)"/>
        <path id="Path_376" data-name="Path 376" d="M1384.91,840.266h-.8a.105.105,0,0,1-.106-.106v-.8a.105.105,0,0,1,.106-.106h.8a.106.106,0,0,1,.106.106v.8a.106.106,0,0,1-.106.106" fill="url(#linear-gradient)"/>
        <path id="Path_377" data-name="Path 377" d="M1083.914,1056.806h-.8a.1.1,0,0,1-.106-.1v-.8a.105.105,0,0,1,.106-.106h.8a.106.106,0,0,1,.106.106v.8a.105.105,0,0,1-.106.1" fill="url(#linear-gradient)"/>
        <path id="Path_378" data-name="Path 378" d="M1169.979,682.3h-2.887a1.478,1.478,0,0,1-1.478-1.478V677.94a1.478,1.478,0,0,1,1.478-1.478h2.887a1.478,1.478,0,0,1,1.478,1.478v2.887a1.478,1.478,0,0,1-1.478,1.478" fill="url(#linear-gradient)"/>
        <path id="Path_379" data-name="Path 379" d="M231.433,297.53h-.8a.105.105,0,0,1-.106-.106v-.8a.105.105,0,0,1,.106-.106h.8a.106.106,0,0,1,.106.106v.8a.106.106,0,0,1-.106.106" fill="url(#linear-gradient)"/>
        <path id="Path_380" data-name="Path 380" d="M467.332,323.93h-.8a.105.105,0,0,1-.106-.1v-.8a.106.106,0,0,1,.106-.107h.8a.106.106,0,0,1,.106.107v.8a.106.106,0,0,1-.106.1" fill="url(#linear-gradient)"/>
        <path id="Path_381" data-name="Path 381" d="M253.687,1079.545h-1.475a.324.324,0,0,1-.324-.324v-1.475a.324.324,0,0,1,.324-.324h1.475a.324.324,0,0,1,.324.324v1.475a.324.324,0,0,1-.324.324" fill="url(#linear-gradient)"/>
        <path id="Path_382" data-name="Path 382" d="M114.649,57.138h-.9a.131.131,0,0,1-.131-.131v-.9a.131.131,0,0,1,.131-.131h.9a.131.131,0,0,1,.131.131v.9a.131.131,0,0,1-.131.131" fill="url(#linear-gradient)"/>
        <path id="Path_383" data-name="Path 383" d="M1500.4,655.63h-.8a.105.105,0,0,1-.106-.106v-.8a.105.105,0,0,1,.106-.106h.8a.106.106,0,0,1,.106.106v.8a.106.106,0,0,1-.106.106" fill="url(#linear-gradient)"/>
        <path id="Path_384" data-name="Path 384" d="M1749.982,122.858h-4.847a2.7,2.7,0,0,1-2.7-2.705v-4.847a2.7,2.7,0,0,1,2.7-2.705h4.847a2.7,2.7,0,0,1,2.7,2.705v4.847a2.7,2.7,0,0,1-2.7,2.705" fill="url(#linear-gradient)"/>
        <path id="Path_385" data-name="Path 385" d="M1341.611,19.822h-5.37a3,3,0,0,1-3-3v-5.37a3,3,0,0,1,3-3h5.37a3,3,0,0,1,3,3v5.37a3,3,0,0,1-3,3" fill="url(#linear-gradient)"/>
        <path id="Path_386" data-name="Path 386" d="M1841.051,933.959h-4.641a2.591,2.591,0,0,1-2.59-2.59v-4.641a2.591,2.591,0,0,1,2.59-2.591h4.641a2.59,2.59,0,0,1,2.59,2.591v4.641a2.59,2.59,0,0,1-2.59,2.59" fill="url(#linear-gradient)"/>
        <path id="Path_387" data-name="Path 387" d="M396.939,1058.23h-1.1a.189.189,0,0,1-.189-.189v-1.1a.189.189,0,0,1,.189-.188h1.1a.189.189,0,0,1,.189.188v1.1a.189.189,0,0,1-.189.189" fill="url(#linear-gradient)"/>
        <path id="Path_388" data-name="Path 388" d="M918.194,159.808h-1.232a.23.23,0,0,1-.23-.231v-1.231a.23.23,0,0,1,.23-.231h1.232a.231.231,0,0,1,.231.231v1.231a.231.231,0,0,1-.231.231" fill="url(#linear-gradient)"/>
        <path id="Path_389" data-name="Path 389" d="M79.826,114.758H75.1a2.639,2.639,0,0,1-2.64-2.639v-4.731a2.64,2.64,0,0,1,2.64-2.639h4.73a2.64,2.64,0,0,1,2.64,2.639v4.731a2.639,2.639,0,0,1-2.64,2.639" fill="url(#linear-gradient)"/>
        <path id="Path_390" data-name="Path 390" d="M242.755,882.473h-2.58a1.079,1.079,0,0,1-1.079-1.079v-2.58a1.08,1.08,0,0,1,1.079-1.08h2.58a1.08,1.08,0,0,1,1.079,1.08v2.58a1.079,1.079,0,0,1-1.079,1.079" fill="url(#linear-gradient)"/>
        <path id="Path_391" data-name="Path 391" d="M1799.937,596.107h-1.515a.341.341,0,0,1-.341-.341v-1.515a.341.341,0,0,1,.341-.341h1.515a.341.341,0,0,1,.341.341v1.515a.341.341,0,0,1-.341.341" fill="url(#linear-gradient)"/>
        <path id="Path_392" data-name="Path 392" d="M622.492,527.1h-2.445a.944.944,0,0,1-.944-.944v-2.445a.943.943,0,0,1,.944-.944h2.445a.944.944,0,0,1,.944.944v2.445a.944.944,0,0,1-.944.944" fill="url(#linear-gradient)"/>
        <path id="Path_393" data-name="Path 393" d="M1481.263,994.779h-1.783a.471.471,0,0,1-.471-.471v-1.783a.47.47,0,0,1,.471-.47h1.783a.47.47,0,0,1,.471.47v1.783a.471.471,0,0,1-.471.471" fill="url(#linear-gradient)"/>
        <path id="Path_394" data-name="Path 394" d="M388.816,130.956h-.8a.105.105,0,0,1-.106-.106v-.8a.105.105,0,0,1,.106-.106h.8a.106.106,0,0,1,.106.106v.8a.106.106,0,0,1-.106.106" fill="url(#linear-gradient)"/>
        <path id="Path_395" data-name="Path 395" d="M601.027,760.377h-3.812a2.128,2.128,0,0,1-2.128-2.128v-3.812a2.128,2.128,0,0,1,2.128-2.128h3.812a2.128,2.128,0,0,1,2.128,2.128v3.812a2.128,2.128,0,0,1-2.128,2.128" fill="url(#linear-gradient)"/>
        <path id="Path_396" data-name="Path 396" d="M330.211,672.133h-1.359a.276.276,0,0,1-.276-.277V670.5a.276.276,0,0,1,.276-.277h1.359a.277.277,0,0,1,.277.277v1.358a.277.277,0,0,1-.277.277" fill="url(#linear-gradient)"/>
        <path id="Path_397" data-name="Path 397" d="M879.3,252.541h-.8a.105.105,0,0,1-.106-.106v-.8a.105.105,0,0,1,.106-.106h.8a.105.105,0,0,1,.106.106v.8a.105.105,0,0,1-.106.106" fill="url(#linear-gradient)"/>
        <path id="Path_398" data-name="Path 398" d="M1228.328,770.467h-5.094a2.842,2.842,0,0,1-2.844-2.842V762.53a2.843,2.843,0,0,1,2.844-2.843h5.094a2.843,2.843,0,0,1,2.843,2.843v5.095a2.842,2.842,0,0,1-2.843,2.842" fill="url(#linear-gradient)"/>
        <path id="Path_399" data-name="Path 399" d="M1067.114,657.924h-3.642a2.032,2.032,0,0,1-2.032-2.032v-3.641a2.033,2.033,0,0,1,2.032-2.033h3.642a2.033,2.033,0,0,1,2.032,2.033v3.641a2.033,2.033,0,0,1-2.032,2.032" fill="url(#linear-gradient)"/>
        <path id="Path_400" data-name="Path 400" d="M849.128,1030.637h-.8a.105.105,0,0,1-.106-.106v-.8a.105.105,0,0,1,.106-.106h.8a.105.105,0,0,1,.106.106v.8a.105.105,0,0,1-.106.106" fill="url(#linear-gradient)"/>
        <path id="Path_401" data-name="Path 401" d="M1726.79,894.415h-3.931a2.194,2.194,0,0,1-2.194-2.194V888.29a2.194,2.194,0,0,1,2.194-2.194h3.931a2.194,2.194,0,0,1,2.194,2.194v3.931a2.194,2.194,0,0,1-2.194,2.194" fill="url(#linear-gradient)"/>
        <path id="Path_402" data-name="Path 402" d="M1805.97,318.187h-2.683a1.2,1.2,0,0,1-1.2-1.2v-2.683a1.2,1.2,0,0,1,1.2-1.2h2.683a1.2,1.2,0,0,1,1.2,1.2v2.683a1.2,1.2,0,0,1-1.2,1.2" fill="url(#linear-gradient)"/>
        <path id="Path_403" data-name="Path 403" d="M1041.473,445.89h-1.111a.191.191,0,0,1-.191-.191v-1.111a.192.192,0,0,1,.191-.191h1.111a.192.192,0,0,1,.191.191V445.7a.191.191,0,0,1-.191.191" fill="url(#linear-gradient)"/>
        <path id="Path_404" data-name="Path 404" d="M416.59,203.927h-.8a.1.1,0,0,1-.105-.106v-.8a.1.1,0,0,1,.105-.106h.8a.106.106,0,0,1,.105.106v.8a.106.106,0,0,1-.105.106" fill="url(#linear-gradient)"/>
        <path id="Path_405" data-name="Path 405" d="M152.814,474.894h-1.526a.346.346,0,0,1-.346-.346v-1.526a.346.346,0,0,1,.346-.346h1.526a.346.346,0,0,1,.346.346v1.526a.346.346,0,0,1-.346.346" fill="url(#linear-gradient)"/>
        <path id="Path_406" data-name="Path 406" d="M748.433,731.39H745.59a1.41,1.41,0,0,1-1.41-1.41v-2.843a1.41,1.41,0,0,1,1.41-1.411h2.843a1.411,1.411,0,0,1,1.41,1.411v2.843a1.41,1.41,0,0,1-1.41,1.41" fill="url(#linear-gradient)"/>
        <path id="Path_407" data-name="Path 407" d="M474.746,1023.6h-5.2a2.9,2.9,0,0,1-2.9-2.9v-5.2a2.9,2.9,0,0,1,2.9-2.9h5.2a2.9,2.9,0,0,1,2.9,2.9v5.2a2.9,2.9,0,0,1-2.9,2.9" fill="url(#linear-gradient)"/>
        <path id="Path_408" data-name="Path 408" d="M651.792,294.2h-2.685a1.2,1.2,0,0,1-1.2-1.2v-2.684a1.2,1.2,0,0,1,1.2-1.2h2.685a1.2,1.2,0,0,1,1.2,1.2V293a1.2,1.2,0,0,1-1.2,1.2" fill="url(#linear-gradient)"/>
        <path id="Path_409" data-name="Path 409" d="M13.406,412.821h-.8a.105.105,0,0,1-.106-.106v-.8a.105.105,0,0,1,.106-.106h.8a.106.106,0,0,1,.106.106v.8a.106.106,0,0,1-.106.106" fill="url(#linear-gradient)"/>
        <path id="Path_410" data-name="Path 410" d="M802.645,615.785h-3.22a1.8,1.8,0,0,1-1.8-1.8v-3.22a1.8,1.8,0,0,1,1.8-1.8h3.22a1.8,1.8,0,0,1,1.8,1.8v3.22a1.8,1.8,0,0,1-1.8,1.8" fill="url(#linear-gradient)"/>
        <path id="Path_411" data-name="Path 411" d="M1191.5,251.61h-1.868a.517.517,0,0,1-.517-.518v-1.868a.517.517,0,0,1,.517-.517h1.868a.518.518,0,0,1,.518.517v1.868a.518.518,0,0,1-.518.518" fill="url(#linear-gradient)"/>
        <path id="Path_412" data-name="Path 412" d="M677.495,488.831h-3.349a1.868,1.868,0,0,1-1.868-1.869v-3.348a1.868,1.868,0,0,1,1.868-1.869h3.349a1.869,1.869,0,0,1,1.869,1.869v3.348a1.869,1.869,0,0,1-1.869,1.869" fill="url(#linear-gradient)"/>
        <path id="Path_413" data-name="Path 413" d="M806.238,213.155h-.8a.105.105,0,0,1-.106-.106v-.8a.105.105,0,0,1,.106-.106h.8a.105.105,0,0,1,.106.106v.8a.105.105,0,0,1-.106.106" fill="url(#linear-gradient)"/>
        <path id="Path_414" data-name="Path 414" d="M1009.459,688.079h-4.231a2.361,2.361,0,0,1-2.361-2.361v-4.231a2.361,2.361,0,0,1,2.361-2.362h4.231a2.361,2.361,0,0,1,2.361,2.362v4.231a2.361,2.361,0,0,1-2.361,2.361" fill="url(#linear-gradient)"/>
        <path id="Path_415" data-name="Path 415" d="M1348.792,76.706H1346.4a.892.892,0,0,1-.892-.892V73.425a.892.892,0,0,1,.892-.892h2.389a.891.891,0,0,1,.892.892v2.389a.891.891,0,0,1-.892.892" fill="url(#linear-gradient)"/>
        <path id="Path_416" data-name="Path 416" d="M297.862,77.738h-4.63a2.584,2.584,0,0,1-2.584-2.584v-4.63a2.584,2.584,0,0,1,2.584-2.584h4.63a2.584,2.584,0,0,1,2.584,2.584v4.63a2.584,2.584,0,0,1-2.584,2.584" fill="url(#linear-gradient)"/>
        <path id="Path_417" data-name="Path 417" d="M855.179,869.67h-4.343a2.424,2.424,0,0,1-2.424-2.424V862.9a2.424,2.424,0,0,1,2.424-2.424h4.343A2.424,2.424,0,0,1,857.6,862.9v4.344a2.424,2.424,0,0,1-2.424,2.424" fill="url(#linear-gradient)"/>
        <path id="Path_418" data-name="Path 418" d="M1815.64,449.995h-2.686a1.2,1.2,0,0,1-1.2-1.2v-2.686a1.2,1.2,0,0,1,1.2-1.2h2.686a1.2,1.2,0,0,1,1.2,1.2v2.686a1.2,1.2,0,0,1-1.2,1.2" fill="url(#linear-gradient)"/>
        <path id="Path_419" data-name="Path 419" d="M667.643,606h-1.106a.188.188,0,0,1-.188-.189v-1.1a.187.187,0,0,1,.188-.189h1.106a.189.189,0,0,1,.188.189v1.1a.189.189,0,0,1-.188.189" fill="url(#linear-gradient)"/>
        <path id="Path_420" data-name="Path 420" d="M501.12,370.268h-2.865a1.442,1.442,0,0,1-1.442-1.443v-2.864a1.442,1.442,0,0,1,1.442-1.442h2.865a1.443,1.443,0,0,1,1.443,1.442v2.864a1.443,1.443,0,0,1-1.443,1.443" fill="url(#linear-gradient)"/>
        <path id="Path_421" data-name="Path 421" d="M1605.446,53.4h-4.055a2.264,2.264,0,0,1-2.265-2.263V47.081a2.264,2.264,0,0,1,2.265-2.263h4.055a2.262,2.262,0,0,1,2.262,2.263v4.056a2.262,2.262,0,0,1-2.262,2.263" fill="url(#linear-gradient)"/>
        <path id="Path_422" data-name="Path 422" d="M875.659,200.164h-3a1.669,1.669,0,0,1-1.669-1.669v-3a1.669,1.669,0,0,1,1.669-1.669h3a1.669,1.669,0,0,1,1.669,1.669v3a1.669,1.669,0,0,1-1.669,1.669" fill="url(#linear-gradient)"/>
        <path id="Path_423" data-name="Path 423" d="M1007.846,346.7H1005.2a1.153,1.153,0,0,1-1.153-1.153V342.9a1.154,1.154,0,0,1,1.153-1.154h2.646A1.154,1.154,0,0,1,1009,342.9v2.646a1.153,1.153,0,0,1-1.153,1.153" fill="url(#linear-gradient)"/>
        <path id="Path_424" data-name="Path 424" d="M1682.519,484.7h-1.288a.251.251,0,0,1-.25-.25v-1.287a.251.251,0,0,1,.25-.25h1.288a.251.251,0,0,1,.25.25v1.287a.251.251,0,0,1-.25.25" fill="url(#linear-gradient)"/>
        <path id="Path_425" data-name="Path 425" d="M1613.019,487.077h-3.03a1.691,1.691,0,0,1-1.691-1.691v-3.03a1.691,1.691,0,0,1,1.691-1.691h3.03a1.691,1.691,0,0,1,1.691,1.691v3.03a1.691,1.691,0,0,1-1.691,1.691" fill="url(#linear-gradient)"/>
        <path id="Path_426" data-name="Path 426" d="M1520.657,163.525H1518.6a.635.635,0,0,1-.635-.635v-2.057a.635.635,0,0,1,.635-.635h2.057a.635.635,0,0,1,.635.635v2.057a.635.635,0,0,1-.635.635" fill="url(#linear-gradient)"/>
        <path id="Path_427" data-name="Path 427" d="M905.251,32.177h-4.525a2.525,2.525,0,0,1-2.525-2.525V25.127a2.525,2.525,0,0,1,2.525-2.526h4.525a2.526,2.526,0,0,1,2.526,2.526v4.525a2.526,2.526,0,0,1-2.526,2.525" fill="url(#linear-gradient)"/>
        <path id="Path_428" data-name="Path 428" d="M783.812,261.678H781.93a.525.525,0,0,1-.526-.526V259.27a.525.525,0,0,1,.526-.526h1.882a.526.526,0,0,1,.526.526v1.882a.526.526,0,0,1-.526.526" fill="url(#linear-gradient)"/>
        <path id="Path_429" data-name="Path 429" d="M783.806,905.653h-2.1a.668.668,0,0,1-.668-.667v-2.105a.668.668,0,0,1,.668-.667h2.1a.667.667,0,0,1,.667.667v2.105a.667.667,0,0,1-.667.667" fill="url(#linear-gradient)"/>
        <path id="Path_430" data-name="Path 430" d="M850.491,979.166h-.943a.142.142,0,0,1-.142-.142v-.943a.142.142,0,0,1,.142-.143h.943a.142.142,0,0,1,.142.143v.943a.142.142,0,0,1-.142.142" fill="url(#linear-gradient)"/>
        <path id="Path_431" data-name="Path 431" d="M703.918,144.267h-3.93a2.194,2.194,0,0,1-2.194-2.194v-3.93a2.193,2.193,0,0,1,2.194-2.193h3.93a2.194,2.194,0,0,1,2.194,2.193v3.93a2.194,2.194,0,0,1-2.194,2.194" fill="url(#linear-gradient)"/>
        <path id="Path_432" data-name="Path 432" d="M664.771,358.8H659.1a3.167,3.167,0,0,1-3.167-3.167v-5.674a3.167,3.167,0,0,1,3.167-3.167h5.674a3.167,3.167,0,0,1,3.167,3.167v5.674a3.167,3.167,0,0,1-3.167,3.167" fill="url(#linear-gradient)"/>
        <path id="Path_433" data-name="Path 433" d="M958.125,113.921h-4.219a2.354,2.354,0,0,1-2.354-2.355v-4.218a2.354,2.354,0,0,1,2.354-2.355h4.219a2.355,2.355,0,0,1,2.355,2.355v4.218a2.355,2.355,0,0,1-2.355,2.355" fill="url(#linear-gradient)"/>
        <path id="Path_434" data-name="Path 434" d="M454.538,166.932h-2.28a.8.8,0,0,1-.8-.8v-2.28a.8.8,0,0,1,.8-.8h2.28a.8.8,0,0,1,.8.8v2.28a.8.8,0,0,1-.8.8" fill="url(#linear-gradient)"/>
        <path id="Path_435" data-name="Path 435" d="M1360.256,370.446h-4.691a2.619,2.619,0,0,1-2.619-2.618v-4.692a2.619,2.619,0,0,1,2.619-2.618h4.691a2.618,2.618,0,0,1,2.618,2.618v4.692a2.618,2.618,0,0,1-2.618,2.618" fill="url(#linear-gradient)"/>
        <path id="Path_436" data-name="Path 436" d="M982.962,539.776h-.924a.137.137,0,0,1-.138-.137v-.925a.137.137,0,0,1,.138-.137h.924a.137.137,0,0,1,.137.137v.925a.137.137,0,0,1-.137.137" fill="url(#linear-gradient)"/>
        <path id="Path_437" data-name="Path 437" d="M1128.546,307.456H1123.8a2.649,2.649,0,0,1-2.65-2.65v-4.749a2.651,2.651,0,0,1,2.65-2.651h4.749a2.652,2.652,0,0,1,2.651,2.651v4.749a2.65,2.65,0,0,1-2.651,2.65" fill="url(#linear-gradient)"/>
        <path id="Path_438" data-name="Path 438" d="M785.3,2.8h-1.574a.366.366,0,0,1-.366-.367V.862A.366.366,0,0,1,783.725.5H785.3a.367.367,0,0,1,.367.367V2.435a.367.367,0,0,1-.367.367" fill="url(#linear-gradient)"/>
        <path id="Path_439" data-name="Path 439" d="M815.739,1073.222h-1.752a.454.454,0,0,1-.454-.454v-1.752a.454.454,0,0,1,.454-.454h1.752a.454.454,0,0,1,.454.454v1.752a.454.454,0,0,1-.454.454" fill="url(#linear-gradient)"/>
        <path id="Path_440" data-name="Path 440" d="M1741.094,182.743h-3.008a1.679,1.679,0,0,1-1.679-1.679v-3.008a1.679,1.679,0,0,1,1.679-1.678h3.008a1.678,1.678,0,0,1,1.679,1.678v3.008a1.679,1.679,0,0,1-1.679,1.679" fill="url(#linear-gradient)"/>
        <path id="Path_441" data-name="Path 441" d="M1036.2,1037.411h-.994a.156.156,0,0,1-.156-.156v-.994a.156.156,0,0,1,.156-.156h.994a.156.156,0,0,1,.156.156v.994a.156.156,0,0,1-.156.156" fill="url(#linear-gradient)"/>
        <path id="Path_442" data-name="Path 442" d="M1917.426,472.125H1914.6a1.378,1.378,0,0,1-1.378-1.379v-2.82a1.378,1.378,0,0,1,1.378-1.379h2.821a1.379,1.379,0,0,1,1.379,1.379v2.82a1.379,1.379,0,0,1-1.379,1.379" fill="url(#linear-gradient)"/>
        <path id="Path_443" data-name="Path 443" d="M1424.022,371.386h-4.489a2.506,2.506,0,0,1-2.506-2.506v-4.489a2.505,2.505,0,0,1,2.506-2.505h4.489a2.505,2.505,0,0,1,2.506,2.505v4.489a2.506,2.506,0,0,1-2.506,2.506" fill="url(#linear-gradient)"/>
        <path id="Path_444" data-name="Path 444" d="M1070.365,598.513h-.887a.127.127,0,0,1-.127-.128V597.5a.127.127,0,0,1,.127-.128h.887a.128.128,0,0,1,.128.128v.886a.128.128,0,0,1-.128.128" fill="url(#linear-gradient)"/>
        <path id="Path_445" data-name="Path 445" d="M546.709,109.327h-2.285a.8.8,0,0,1-.8-.8v-2.285a.8.8,0,0,1,.8-.8h2.285a.8.8,0,0,1,.8.8v2.285a.8.8,0,0,1-.8.8" fill="url(#linear-gradient)"/>
        <path id="Path_446" data-name="Path 446" d="M187.8,578.5h-2.7a1.222,1.222,0,0,1-1.222-1.222v-2.7a1.222,1.222,0,0,1,1.222-1.222h2.7a1.222,1.222,0,0,1,1.222,1.222v2.7A1.222,1.222,0,0,1,187.8,578.5" fill="url(#linear-gradient)"/>
        <path id="Path_447" data-name="Path 447" d="M308.667,136.854h-3.154a1.76,1.76,0,0,1-1.76-1.76V131.94a1.76,1.76,0,0,1,1.76-1.76h3.154a1.76,1.76,0,0,1,1.76,1.76v3.154a1.76,1.76,0,0,1-1.76,1.76" fill="url(#linear-gradient)"/>
        <path id="Path_448" data-name="Path 448" d="M178.988,315.1h-3.249a1.813,1.813,0,0,1-1.813-1.813v-3.249a1.813,1.813,0,0,1,1.813-1.813h3.249a1.813,1.813,0,0,1,1.813,1.813v3.249a1.813,1.813,0,0,1-1.813,1.813" fill="url(#linear-gradient)"/>
        <path id="Path_449" data-name="Path 449" d="M110.246,171.823h-4.867a2.716,2.716,0,0,1-2.716-2.716V164.24a2.716,2.716,0,0,1,2.716-2.716h4.867a2.716,2.716,0,0,1,2.716,2.716v4.867a2.716,2.716,0,0,1-2.716,2.716" fill="url(#linear-gradient)"/>
        <path id="Path_450" data-name="Path 450" d="M589.215,1040.771h-1.634a.4.4,0,0,1-.4-.4v-1.634a.394.394,0,0,1,.4-.394h1.634a.394.394,0,0,1,.395.394v1.634a.4.4,0,0,1-.395.4" fill="url(#linear-gradient)"/>
        <path id="Path_451" data-name="Path 451" d="M1660.818,372.417h-2.651a1.16,1.16,0,0,1-1.16-1.159v-2.651a1.16,1.16,0,0,1,1.16-1.16h2.651a1.159,1.159,0,0,1,1.159,1.16v2.651a1.159,1.159,0,0,1-1.159,1.159" fill="url(#linear-gradient)"/>
      </g>
    </g>
    <g id="Group_68" data-name="Group 68" transform="translate(0 158)" opacity="0.36">
      <rect id="Rectangle_71" data-name="Rectangle 71" width="2" height="942" transform="translate(150 1781)" fill="url(#linear-gradient-318)"/>
      <rect id="Rectangle_80" data-name="Rectangle 80" width="2" height="942" transform="translate(960 1781)" fill="url(#linear-gradient-318)"/>
      <rect id="Rectangle_72" data-name="Rectangle 72" width="2" height="942" transform="translate(308 1712)" fill="url(#linear-gradient-318)"/>
      <rect id="Rectangle_79" data-name="Rectangle 79" width="2" height="942" transform="translate(1121 1712)" fill="url(#linear-gradient-318)"/>
      <rect id="Rectangle_73" data-name="Rectangle 73" width="2" height="942" transform="translate(474 1878)" fill="url(#linear-gradient-318)"/>
      <rect id="Rectangle_78" data-name="Rectangle 78" width="2" height="942" transform="translate(1284 1878)" fill="url(#linear-gradient-318)"/>
      <rect id="Rectangle_74" data-name="Rectangle 74" width="2" height="942" transform="translate(636 1741)" fill="url(#linear-gradient-318)"/>
      <rect id="Rectangle_77" data-name="Rectangle 77" width="2" height="942" transform="translate(1445 1741)" fill="url(#linear-gradient-318)"/>
      <rect id="Rectangle_75" data-name="Rectangle 75" width="2" height="942" transform="translate(798 1878)" fill="url(#linear-gradient-318)"/>
      <rect id="Rectangle_76" data-name="Rectangle 76" width="2" height="942" transform="translate(1612 1878)" fill="url(#linear-gradient-318)"/>
      <rect id="Rectangle_81" data-name="Rectangle 81" width="2" height="942" transform="translate(1769 1762)" fill="url(#linear-gradient-318)"/>
      <rect id="Rectangle_82" data-name="Rectangle 82" width="2" height="657" transform="translate(1528 2001)" fill="url(#linear-gradient-318)"/>
      <rect id="Rectangle_83" data-name="Rectangle 83" width="2" height="657" transform="translate(1188 1873)" fill="url(#linear-gradient-318)"/>
      <rect id="Rectangle_84" data-name="Rectangle 84" width="2" height="657" transform="translate(877 1930)" fill="url(#linear-gradient-318)"/>
      <rect id="Rectangle_85" data-name="Rectangle 85" width="2" height="657" transform="translate(553 1880)" fill="url(#linear-gradient-318)"/>
      <rect id="Rectangle_86" data-name="Rectangle 86" width="2" height="657" transform="translate(231 1998)" fill="url(#linear-gradient-318)"/>
    </g>
  </g>
</svg>
